{
	"asset":{
		"generator":"Khronos glTF Blender I/O v4.1.63",
		"version":"2.0"
	},
	"scene":0,
	"scenes":[
		{
			"name":"Scene",
			"nodes":[
				0
			]
		}
	],
	"nodes":[
		{
			"mesh":0,
			"name":"Family_Tomb_01",
			"translation":[
				30.339109420776367,
				0,
				-2.3253250122070312
			]
		}
	],
	"materials":[
		{
			"doubleSided":true,
			"name":"familytomb01",
			"normalTexture":{
				"index":0
			},
			"pbrMetallicRoughness":{
				"baseColorTexture":{
					"index":1
				},
				"metallicRoughnessTexture":{
					"index":2
				}
			}
		}
	],
	"meshes":[
		{
			"name":"Family_Tomb_01",
			"primitives":[
				{
					"attributes":{
						"POSITION":0,
						"NORMAL":1,
						"TEXCOORD_0":2
					},
					"indices":3,
					"material":0
				}
			]
		}
	],
	"textures":[
		{
			"sampler":0,
			"source":0
		},
		{
			"sampler":0,
			"source":1
		},
		{
			"sampler":0,
			"source":2
		}
	],
	"images":[
		{
			"mimeType":"image/png",
			"name":"FamilyTomb01_n",
			"uri":"FamilyTomb01_n.png"
		},
		{
			"mimeType":"image/png",
			"name":"FamilyTomb01_d",
			"uri":"FamilyTomb01_d.png"
		},
		{
			"mimeType":"image/png",
			"name":"FamilyTomb01_m-FamilyTomb01_r",
			"uri":"FamilyTomb01_m-FamilyTomb01_r.png"
		}
	],
	"accessors":[
		{
			"bufferView":0,
			"componentType":5126,
			"count":5693,
			"max":[
				2.1779253482818604,
				4.900104522705078,
				1.1412076950073242
			],
			"min":[
				-2.272911548614502,
				-3.2584134146418364e-07,
				-1.1412075757980347
			],
			"type":"VEC3"
		},
		{
			"bufferView":1,
			"componentType":5126,
			"count":5693,
			"type":"VEC3"
		},
		{
			"bufferView":2,
			"componentType":5126,
			"count":5693,
			"type":"VEC2"
		},
		{
			"bufferView":3,
			"componentType":5123,
			"count":19068,
			"type":"SCALAR"
		}
	],
	"bufferViews":[
		{
			"buffer":0,
			"byteLength":68316,
			"byteOffset":0,
			"target":34962
		},
		{
			"buffer":0,
			"byteLength":68316,
			"byteOffset":68316,
			"target":34962
		},
		{
			"buffer":0,
			"byteLength":45544,
			"byteOffset":136632,
			"target":34962
		},
		{
			"buffer":0,
			"byteLength":38136,
			"byteOffset":182176,
			"target":34963
		}
	],
	"samplers":[
		{
			"magFilter":9729,
			"minFilter":9987
		}
	],
	"buffers":[
		{
			"byteLength":220312,
			"uri":"SmallMaus2.bin"
		}
	]
}
