{
  "accessors": [
    {
      "bufferView": 2,
      "componentType": 5126,
      "count": 3937,
      "max": [
        42.91287612915039,
        99.620849609375,
        41.32168197631836
      ],
      "min": [
        -40.901084899902344,
        -0.3791539967060089,
        -41.32168197631836
      ],
      "type": "VEC3"
    },
    {
      "bufferView": 2,
      "byteOffset": 47244,
      "componentType": 5126,
      "count": 3937,
      "max": [
        1.0,
        1.0,
        1.0
      ],
      "min": [
        -0.9898214936256409,
        -1.0,
        -1.0
      ],
      "type": "VEC3"
    },
    {
      "bufferView": 3,
      "componentType": 5126,
      "count": 3937,
      "max": [
        1.0,
        0.9992364048957825,
        0.9999998211860657,
        1.0
      ],
      "min": [
        -1.0,
        -1.0,
        -1.0,
        -1.0
      ],
      "type": "VEC4"
    },
    {
      "bufferView": 1,
      "componentType": 5126,
      "count": 3937,
      "max": [
        0.990444004535675,
        0.9982159733772278
      ],
      "min": [
        0.0031210000161081553,
        0.004422000143676996
      ],
      "type": "VEC2"
    },
    {
      "bufferView": 0,
      "componentType": 5125,
      "count": 13200,
      "type": "SCALAR"
    }
  ],
  "asset": {
    "extras": {
      "author": "Pixel Life (https://sketchfab.com/pixellife)",
      "license": "CC-BY-4.0 (http://creativecommons.org/licenses/by/4.0/)",
      "source": "https://sketchfab.com/3d-models/wooden-barrel-game-ready-asset-327709ad4fb84207bfc38d388a946163",
      "title": "Wooden Barrel (game ready asset)"
    },
    "generator": "Sketchfab-15.44.0",
    "version": "2.0"
  },
  "bufferViews": [
    {
      "buffer": 0,
      "byteLength": 52800,
      "name": "floatBufferViews",
      "target": 34963
    },
    {
      "buffer": 0,
      "byteLength": 31496,
      "byteOffset": 52800,
      "byteStride": 8,
      "name": "floatBufferViews",
      "target": 34962
    },
    {
      "buffer": 0,
      "byteLength": 94488,
      "byteOffset": 84296,
      "byteStride": 12,
      "name": "floatBufferViews",
      "target": 34962
    },
    {
      "buffer": 0,
      "byteLength": 62992,
      "byteOffset": 178784,
      "byteStride": 16,
      "name": "floatBufferViews",
      "target": 34962
    }
  ],
  "buffers": [
    {
      "byteLength": 241776,
      "uri": "scene.bin"
    }
  ],
  "images": [
    {
      "uri": "textures/DefaultMaterial_baseColor.jpeg"
    },
    {
      "uri": "textures/DefaultMaterial_metallicRoughness.png"
    },
    {
      "uri": "textures/DefaultMaterial_normal.png"
    }
  ],
  "materials": [
    {
      "doubleSided": true,
      "name": "DefaultMaterial",
      "normalTexture": {
        "index": 2
      },
      "occlusionTexture": {
        "index": 1
      },
      "pbrMetallicRoughness": {
        "baseColorTexture": {
          "index": 0
        },
        "metallicRoughnessTexture": {
          "index": 1
        }
      }
    }
  ],
  "meshes": [
    {
      "name": "defaultMaterial",
      "primitives": [
        {
          "attributes": {
            "NORMAL": 1,
            "POSITION": 0,
            "TANGENT": 2,
            "TEXCOORD_0": 3
          },
          "indices": 4,
          "material": 0,
          "mode": 4
        }
      ]
    }
  ],
  "nodes": [
    {
      "children": [
        1
      ],
      "matrix": [
        1.0,
        0.0,
        0.0,
        0.0,
        0.0,
        2.220446049250313e-16,
        -1.0,
        0.0,
        0.0,
        1.0,
        2.220446049250313e-16,
        0.0,
        0.0,
        0.0,
        0.0,
        1.0
      ],
      "name": "Sketchfab_model"
    },
    {
      "children": [
        2
      ],
      "matrix": [
        1.0,
        0.0,
        0.0,
        0.0,
        0.0,
        -4.371139006309477e-08,
        0.999999999999999,
        0.0,
        0.0,
        -0.999999999999999,
        -4.371139006309477e-08,
        0.0,
        0.0,
        0.0,
        0.0,
        1.0
      ],
      "name": "Collada visual scene group"
    },
    {
      "children": [
        3
      ],
      "matrix": [
        1.0,
        0.0,
        0.0,
        0.0,
        0.0,
        1.0,
        0.0,
        0.0,
        0.0,
        0.0,
        -1.0,
        0.0,
        0.0,
        0.0,
        0.0,
        1.0
      ],
      "name": "Barel"
    },
    {
      "mesh": 0,
      "name": "defaultMaterial"
    }
  ],
  "samplers": [
    {
      "magFilter": 9729,
      "minFilter": 9987,
      "wrapS": 10497,
      "wrapT": 10497
    }
  ],
  "scene": 0,
  "scenes": [
    {
      "name": "Sketchfab_Scene",
      "nodes": [
        0
      ]
    }
  ],
  "textures": [
    {
      "sampler": 0,
      "source": 0
    },
    {
      "sampler": 0,
      "source": 1
    },
    {
      "sampler": 0,
      "source": 2
    }
  ]
}
