{
  "accessors": [
    {
      "bufferView": 2,
      "componentType": 5126,
      "count": 5329,
      "max": [
        16.583309173583984,
        16.631269454956055,
        38.86871337890625
      ],
      "min": [
        -23.80855941772461,
        0.5399940609931946,
        -36.149261474609375
      ],
      "type": "VEC3"
    },
    {
      "bufferView": 2,
      "byteOffset": 63948,
      "componentType": 5126,
      "count": 5329,
      "max": [
        1.0,
        1.0,
        1.0
      ],
      "min": [
        -1.0,
        -1.0,
        -1.0
      ],
      "type": "VEC3"
    },
    {
      "bufferView": 3,
      "componentType": 5126,
      "count": 5329,
      "max": [
        0.9999286532402039,
        0.9993352890014648,
        0.9998064637184143,
        1.0
      ],
      "min": [
        -0.9999995231628418,
        -0.9998379945755005,
        -0.999541699886322,
        -1.0
      ],
      "type": "VEC4"
    },
    {
      "bufferView": 1,
      "componentType": 5126,
      "count": 5329,
      "max": [
        0.99755859375,
        0.9974227547645569
      ],
      "min": [
        0.00244140625,
        0.00244140625
      ],
      "type": "VEC2"
    },
    {
      "bufferView": 1,
      "byteOffset": 42632,
      "componentType": 5126,
      "count": 5329,
      "max": [
        0.99755859375,
        0.9974227547645569
      ],
      "min": [
        0.00244140625,
        0.00244140625
      ],
      "type": "VEC2"
    },
    {
      "bufferView": 1,
      "byteOffset": 85264,
      "componentType": 5126,
      "count": 5329,
      "max": [
        0.99755859375,
        0.9974227547645569
      ],
      "min": [
        0.00244140625,
        0.00244140625
      ],
      "type": "VEC2"
    },
    {
      "bufferView": 1,
      "byteOffset": 127896,
      "componentType": 5126,
      "count": 5329,
      "max": [
        0.99755859375,
        0.9974227547645569
      ],
      "min": [
        0.00244140625,
        0.00244140625
      ],
      "type": "VEC2"
    },
    {
      "bufferView": 1,
      "byteOffset": 170528,
      "componentType": 5126,
      "count": 5329,
      "max": [
        0.99755859375,
        0.9974227547645569
      ],
      "min": [
        0.00244140625,
        0.00244140625
      ],
      "type": "VEC2"
    },
    {
      "bufferView": 1,
      "byteOffset": 213160,
      "componentType": 5126,
      "count": 5329,
      "max": [
        0.99755859375,
        0.9974227547645569
      ],
      "min": [
        0.00244140625,
        0.00244140625
      ],
      "type": "VEC2"
    },
    {
      "bufferView": 0,
      "componentType": 5125,
      "count": 12204,
      "type": "SCALAR"
    }
  ],
  "asset": {
    "extras": {
      "author": "DivyeSh PanchAl (https://sketchfab.com/DivyeSh.PanchAl)",
      "license": "CC-BY-4.0 (http://creativecommons.org/licenses/by/4.0/)",
      "source": "https://sketchfab.com/3d-models/broken-coffin-715fd5c8503b4a0e8106168535c186ff",
      "title": "Broken Coffin"
    },
    "generator": "Sketchfab-12.66.0",
    "version": "2.0"
  },
  "bufferViews": [
    {
      "buffer": 0,
      "byteLength": 48816,
      "name": "floatBufferViews",
      "target": 34963
    },
    {
      "buffer": 0,
      "byteLength": 255792,
      "byteOffset": 48816,
      "byteStride": 8,
      "name": "floatBufferViews",
      "target": 34962
    },
    {
      "buffer": 0,
      "byteLength": 127896,
      "byteOffset": 304608,
      "byteStride": 12,
      "name": "floatBufferViews",
      "target": 34962
    },
    {
      "buffer": 0,
      "byteLength": 85264,
      "byteOffset": 432504,
      "byteStride": 16,
      "name": "floatBufferViews",
      "target": 34962
    }
  ],
  "buffers": [
    {
      "byteLength": 517768,
      "uri": "scene.bin"
    }
  ],
  "images": [
    {
      "uri": "textures/Coffin_texture_baseColor.png"
    },
    {
      "uri": "textures/Coffin_texture_metallicRoughness.png"
    },
    {
      "uri": "textures/Coffin_texture_emissive.png"
    },
    {
      "uri": "textures/Coffin_texture_normal.png"
    }
  ],
  "materials": [
    {
      "doubleSided": true,
      "emissiveFactor": [
        1.0,
        1.0,
        1.0
      ],
      "emissiveTexture": {
        "index": 2
      },
      "name": "Coffin_texture",
      "normalTexture": {
        "index": 3
      },
      "occlusionTexture": {
        "index": 1
      },
      "pbrMetallicRoughness": {
        "baseColorTexture": {
          "index": 0
        },
        "metallicRoughnessTexture": {
          "index": 1
        }
      }
    }
  ],
  "meshes": [
    {
      "name": "Coffin_low_Coffin_texture_0",
      "primitives": [
        {
          "attributes": {
            "NORMAL": 1,
            "POSITION": 0,
            "TANGENT": 2,
            "TEXCOORD_0": 3,
            "TEXCOORD_1": 4,
            "TEXCOORD_2": 5,
            "TEXCOORD_3": 6,
            "TEXCOORD_4": 7,
            "TEXCOORD_5": 8
          },
          "indices": 9,
          "material": 0,
          "mode": 4
        }
      ]
    }
  ],
  "nodes": [
    {
      "children": [
        1
      ],
      "matrix": [
        1.0,
        0.0,
        0.0,
        0.0,
        0.0,
        2.220446049250313e-16,
        -1.0,
        0.0,
        0.0,
        1.0,
        2.220446049250313e-16,
        0.0,
        0.0,
        0.0,
        0.0,
        1.0
      ],
      "name": "Sketchfab_model"
    },
    {
      "children": [
        2
      ],
      "matrix": [
        1.0,
        0.0,
        0.0,
        0.0,
        0.0,
        0.0,
        1.0,
        0.0,
        0.0,
        -1.0,
        0.0,
        0.0,
        0.0,
        0.0,
        0.0,
        1.0
      ],
      "name": "a7a78648d5e84e118a2ef1c225632cb6.fbx"
    },
    {
      "children": [
        3
      ],
      "name": "RootNode"
    },
    {
      "children": [
        4
      ],
      "name": "_low"
    },
    {
      "children": [
        5
      ],
      "name": "Coffin_low"
    },
    {
      "mesh": 0,
      "name": "Coffin_low_Coffin_texture_0"
    }
  ],
  "samplers": [
    {
      "magFilter": 9729,
      "minFilter": 9987,
      "wrapS": 10497,
      "wrapT": 10497
    }
  ],
  "scene": 0,
  "scenes": [
    {
      "name": "Sketchfab_Scene",
      "nodes": [
        0
      ]
    }
  ],
  "textures": [
    {
      "sampler": 0,
      "source": 0
    },
    {
      "sampler": 0,
      "source": 1
    },
    {
      "sampler": 0,
      "source": 2
    },
    {
      "sampler": 0,
      "source": 3
    }
  ]
}
