{
	"asset":{
		"generator":"Khronos glTF Blender I/O v4.1.63",
		"version":"2.0"
	},
	"scene":0,
	"scenes":[
		{
			"name":"Scene",
			"nodes":[
				0,
				2,
				4,
				6,
				8,
				10,
				12,
				14
			]
		}
	],
	"nodes":[
		{
			"mesh":0,
			"name":"axe_Tool_0",
			"rotation":[
				0.01075347326695919,
				0.5432928800582886,
				-0.8385225534439087,
				0.03996429592370987
			],
			"scale":[
				0.010000000707805157,
				0.010000001639127731,
				0.009999999776482582
			],
			"translation":[
				1.859787106513977,
				0.8050394058227539,
				0.7522477507591248
			]
		},
		{
			"mesh":1,
			"name":"chopping log_Log_0",
			"translation":[
				-4.76837158203125e-06,
				9.5367431640625e-06,
				0
			]
		},
		{
			"children":[
				1
			],
			"name":"chopping log",
			"rotation":[
				0.42669111490249634,
				-0.5638570189476013,
				0.5638571977615356,
				0.4266909658908844
			],
			"scale":[
				0.013575510121881962,
				0.013575508259236813,
				0.013575508259236813
			],
			"translation":[
				1.9222687482833862,
				0,
				0.49173471331596375
			]
		},
		{
			"mesh":2,
			"name":"firewood01_Log_0",
			"translation":[
				0,
				-5.4836273193359375e-06,
				-5.0067901611328125e-06
			]
		},
		{
			"children":[
				3
			],
			"name":"firewood01",
			"rotation":[
				-0.3495682179927826,
				0.31227895617485046,
				-0.4719559848308563,
				0.7466869950294495
			],
			"scale":[
				0.010000001639127731,
				0.010000000707805157,
				0.010000001639127731
			],
			"translation":[
				1.4071590900421143,
				0.10335401445627213,
				0.9886322617530823
			]
		},
		{
			"mesh":3,
			"name":"firewood02_Log_0",
			"translation":[
				-2.689659595489502e-06,
				0,
				0
			]
		},
		{
			"children":[
				5
			],
			"name":"firewood02",
			"rotation":[
				-0.687810480594635,
				0.1501660943031311,
				0.16132381558418274,
				0.6916224360466003
			],
			"scale":[
				0.009999998845160007,
				0.010000001639127731,
				0.010000001639127731
			],
			"translation":[
				1.5118612051010132,
				0.033941976726055145,
				0.9537063837051392
			]
		},
		{
			"mesh":4,
			"name":"firewood03_Log_0",
			"translation":[
				0,
				-2.3365020751953125e-05,
				6.541609764099121e-06
			]
		},
		{
			"children":[
				7
			],
			"name":"firewood03",
			"rotation":[
				-0.6438809037208557,
				0.6910067796707153,
				-0.22911453247070312,
				0.2354433238506317
			],
			"scale":[
				0.010000000707805157,
				0.009999999776482582,
				0.009999999776482582
			],
			"translation":[
				1.5426740646362305,
				0.17406292259693146,
				0.7459508776664734
			]
		},
		{
			"mesh":5,
			"name":"firewood04_Log_0",
			"translation":[
				-2.6226043701171875e-06,
				-3.6954879760742188e-06,
				0
			]
		},
		{
			"children":[
				9
			],
			"name":"firewood04",
			"rotation":[
				-0.43611204624176025,
				-0.4328312575817108,
				-0.4769465923309326,
				0.6284786462783813
			],
			"scale":[
				0.010000001639127731,
				0.010000000707805157,
				0.010000001639127731
			],
			"translation":[
				1.3178008794784546,
				0.06903457641601562,
				0.7320048213005066
			]
		},
		{
			"mesh":6,
			"name":"firewood05_Log_0",
			"translation":[
				0,
				-8.106231689453125e-06,
				3.6954879760742188e-06
			]
		},
		{
			"children":[
				11
			],
			"name":"firewood05",
			"rotation":[
				-0.6100109219551086,
				0.34527307748794556,
				0.21039502322673798,
				0.6814742088317871
			],
			"scale":[
				0.010000000707805157,
				0.010000000707805157,
				0.010000000707805157
			],
			"translation":[
				1.7211617231369019,
				0.06632125377655029,
				0.9064856171607971
			]
		},
		{
			"mesh":7,
			"name":"firewood06_Log_0",
			"translation":[
				-5.9604644775390625e-06,
				1.0251998901367188e-05,
				-3.814697265625e-06
			]
		},
		{
			"children":[
				13
			],
			"name":"firewood06",
			"rotation":[
				-0.6495378017425537,
				0.08330143243074417,
				0.2571702301502228,
				0.7106512188911438
			],
			"scale":[
				0.009999999776482582,
				0.010000001639127731,
				0.009999999776482582
			],
			"translation":[
				1.5063673257827759,
				0.04572154954075813,
				0.6762810945510864
			]
		}
	],
	"materials":[
		{
			"doubleSided":true,
			"name":"Tool",
			"normalTexture":{
				"index":0
			},
			"pbrMetallicRoughness":{
				"baseColorTexture":{
					"index":1
				},
				"metallicRoughnessTexture":{
					"index":2
				}
			}
		},
		{
			"doubleSided":true,
			"name":"material",
			"normalTexture":{
				"index":3
			},
			"pbrMetallicRoughness":{
				"baseColorTexture":{
					"index":4
				},
				"metallicFactor":0,
				"metallicRoughnessTexture":{
					"index":5
				}
			}
		}
	],
	"meshes":[
		{
			"name":"axe_Tool_0",
			"primitives":[
				{
					"attributes":{
						"POSITION":0,
						"NORMAL":1,
						"TEXCOORD_0":2,
						"TEXCOORD_1":3,
						"TEXCOORD_2":4
					},
					"indices":5,
					"material":0
				}
			]
		},
		{
			"name":"chopping log_Log_0",
			"primitives":[
				{
					"attributes":{
						"POSITION":6,
						"NORMAL":7,
						"TEXCOORD_0":8,
						"TEXCOORD_1":9
					},
					"indices":10,
					"material":1
				}
			]
		},
		{
			"name":"firewood01_Log_0",
			"primitives":[
				{
					"attributes":{
						"POSITION":11,
						"NORMAL":12,
						"TEXCOORD_0":13,
						"TEXCOORD_1":14
					},
					"indices":15,
					"material":1
				}
			]
		},
		{
			"name":"firewood02_Log_0",
			"primitives":[
				{
					"attributes":{
						"POSITION":16,
						"NORMAL":17,
						"TEXCOORD_0":18,
						"TEXCOORD_1":19
					},
					"indices":20,
					"material":1
				}
			]
		},
		{
			"name":"firewood03_Log_0",
			"primitives":[
				{
					"attributes":{
						"POSITION":21,
						"NORMAL":22,
						"TEXCOORD_0":23,
						"TEXCOORD_1":24
					},
					"indices":25,
					"material":1
				}
			]
		},
		{
			"name":"firewood04_Log_0",
			"primitives":[
				{
					"attributes":{
						"POSITION":26,
						"NORMAL":27,
						"TEXCOORD_0":28,
						"TEXCOORD_1":29
					},
					"indices":30,
					"material":1
				}
			]
		},
		{
			"name":"firewood05_Log_0",
			"primitives":[
				{
					"attributes":{
						"POSITION":31,
						"NORMAL":32,
						"TEXCOORD_0":33,
						"TEXCOORD_1":34
					},
					"indices":30,
					"material":1
				}
			]
		},
		{
			"name":"firewood06_Log_0",
			"primitives":[
				{
					"attributes":{
						"POSITION":35,
						"NORMAL":36,
						"TEXCOORD_0":37,
						"TEXCOORD_1":38
					},
					"indices":39,
					"material":1
				}
			]
		}
	],
	"textures":[
		{
			"sampler":0,
			"source":0
		},
		{
			"sampler":0,
			"source":1
		},
		{
			"sampler":0,
			"source":2
		},
		{
			"sampler":0,
			"source":3
		},
		{
			"sampler":0,
			"source":4
		},
		{
			"sampler":0,
			"source":5
		}
	],
	"images":[
		{
			"mimeType":"image/png",
			"name":"Tool_normal",
			"uri":"Tool_normal.png"
		},
		{
			"mimeType":"image/png",
			"name":"Tool_baseColor",
			"uri":"Tool_baseColor.png"
		},
		{
			"mimeType":"image/png",
			"name":"Tool_metallicRoughness",
			"uri":"Tool_metallicRoughness.png"
		},
		{
			"mimeType":"image/png",
			"name":"material_normal",
			"uri":"material_normal.png"
		},
		{
			"mimeType":"image/png",
			"name":"material_baseColor",
			"uri":"material_baseColor.png"
		},
		{
			"mimeType":"image/png",
			"name":"material_metallicRoughness",
			"uri":"material_metallicRoughness.png"
		}
	],
	"accessors":[
		{
			"bufferView":0,
			"componentType":5126,
			"count":328,
			"max":[
				2.644333600997925,
				55.4781494140625,
				18.8874454498291
			],
			"min":[
				-2.6443169116973877,
				-49.995460510253906,
				-3.7461600303649902
			],
			"type":"VEC3"
		},
		{
			"bufferView":1,
			"componentType":5126,
			"count":328,
			"type":"VEC3"
		},
		{
			"bufferView":2,
			"componentType":5126,
			"count":328,
			"type":"VEC2"
		},
		{
			"bufferView":3,
			"componentType":5126,
			"count":328,
			"type":"VEC2"
		},
		{
			"bufferView":4,
			"componentType":5126,
			"count":328,
			"type":"VEC2"
		},
		{
			"bufferView":5,
			"componentType":5123,
			"count":1404,
			"type":"SCALAR"
		},
		{
			"bufferView":6,
			"componentType":5126,
			"count":336,
			"max":[
				22.254995346069336,
				22.215539932250977,
				0.9016608595848083
			],
			"min":[
				-21.84853172302246,
				-21.29578971862793,
				-33.117156982421875
			],
			"type":"VEC3"
		},
		{
			"bufferView":7,
			"componentType":5126,
			"count":336,
			"type":"VEC3"
		},
		{
			"bufferView":8,
			"componentType":5126,
			"count":336,
			"type":"VEC2"
		},
		{
			"bufferView":9,
			"componentType":5126,
			"count":336,
			"type":"VEC2"
		},
		{
			"bufferView":10,
			"componentType":5123,
			"count":1680,
			"type":"SCALAR"
		},
		{
			"bufferView":11,
			"componentType":5126,
			"count":48,
			"max":[
				5.576900959014893,
				20.277875900268555,
				8.021443367004395
			],
			"min":[
				-8.682929992675781,
				-20.277875900268555,
				-3.6570143699645996
			],
			"type":"VEC3"
		},
		{
			"bufferView":12,
			"componentType":5126,
			"count":48,
			"type":"VEC3"
		},
		{
			"bufferView":13,
			"componentType":5126,
			"count":48,
			"type":"VEC2"
		},
		{
			"bufferView":14,
			"componentType":5126,
			"count":48,
			"type":"VEC2"
		},
		{
			"bufferView":15,
			"componentType":5123,
			"count":132,
			"type":"SCALAR"
		},
		{
			"bufferView":16,
			"componentType":5126,
			"count":48,
			"max":[
				5.351588249206543,
				20.46119499206543,
				6.428065299987793
			],
			"min":[
				-6.263250350952148,
				-20.277873992919922,
				-3.4827303886413574
			],
			"type":"VEC3"
		},
		{
			"bufferView":17,
			"componentType":5126,
			"count":48,
			"type":"VEC3"
		},
		{
			"bufferView":18,
			"componentType":5126,
			"count":48,
			"type":"VEC2"
		},
		{
			"bufferView":19,
			"componentType":5126,
			"count":48,
			"type":"VEC2"
		},
		{
			"bufferView":20,
			"componentType":5123,
			"count":132,
			"type":"SCALAR"
		},
		{
			"bufferView":21,
			"componentType":5126,
			"count":48,
			"max":[
				4.403692245483398,
				20.277875900268555,
				5.668004989624023
			],
			"min":[
				-7.2105302810668945,
				-20.277875900268555,
				-5.980357646942139
			],
			"type":"VEC3"
		},
		{
			"bufferView":22,
			"componentType":5126,
			"count":48,
			"type":"VEC3"
		},
		{
			"bufferView":23,
			"componentType":5126,
			"count":48,
			"type":"VEC2"
		},
		{
			"bufferView":24,
			"componentType":5126,
			"count":48,
			"type":"VEC2"
		},
		{
			"bufferView":25,
			"componentType":5123,
			"count":132,
			"type":"SCALAR"
		},
		{
			"bufferView":26,
			"componentType":5126,
			"count":40,
			"max":[
				5.140693664550781,
				20.99845314025879,
				3.792684555053711
			],
			"min":[
				-5.476954460144043,
				-20.99845314025879,
				-3.6365859508514404
			],
			"type":"VEC3"
		},
		{
			"bufferView":27,
			"componentType":5126,
			"count":40,
			"type":"VEC3"
		},
		{
			"bufferView":28,
			"componentType":5126,
			"count":40,
			"type":"VEC2"
		},
		{
			"bufferView":29,
			"componentType":5126,
			"count":40,
			"type":"VEC2"
		},
		{
			"bufferView":30,
			"componentType":5123,
			"count":84,
			"type":"SCALAR"
		},
		{
			"bufferView":31,
			"componentType":5126,
			"count":40,
			"max":[
				4.553130149841309,
				20.99845314025879,
				3.7844505310058594
			],
			"min":[
				-6.023856163024902,
				-20.998455047607422,
				-3.706010341644287
			],
			"type":"VEC3"
		},
		{
			"bufferView":32,
			"componentType":5126,
			"count":40,
			"type":"VEC3"
		},
		{
			"bufferView":33,
			"componentType":5126,
			"count":40,
			"type":"VEC2"
		},
		{
			"bufferView":34,
			"componentType":5126,
			"count":40,
			"type":"VEC2"
		},
		{
			"bufferView":35,
			"componentType":5126,
			"count":48,
			"max":[
				6.286706924438477,
				20.99845314025879,
				4.038421630859375
			],
			"min":[
				-4.959654808044434,
				-20.99845314025879,
				-3.9691951274871826
			],
			"type":"VEC3"
		},
		{
			"bufferView":36,
			"componentType":5126,
			"count":48,
			"type":"VEC3"
		},
		{
			"bufferView":37,
			"componentType":5126,
			"count":48,
			"type":"VEC2"
		},
		{
			"bufferView":38,
			"componentType":5126,
			"count":48,
			"type":"VEC2"
		},
		{
			"bufferView":39,
			"componentType":5123,
			"count":108,
			"type":"SCALAR"
		}
	],
	"bufferViews":[
		{
			"buffer":0,
			"byteLength":3936,
			"byteOffset":0,
			"target":34962
		},
		{
			"buffer":0,
			"byteLength":3936,
			"byteOffset":3936,
			"target":34962
		},
		{
			"buffer":0,
			"byteLength":2624,
			"byteOffset":7872,
			"target":34962
		},
		{
			"buffer":0,
			"byteLength":2624,
			"byteOffset":10496,
			"target":34962
		},
		{
			"buffer":0,
			"byteLength":2624,
			"byteOffset":13120,
			"target":34962
		},
		{
			"buffer":0,
			"byteLength":2808,
			"byteOffset":15744,
			"target":34963
		},
		{
			"buffer":0,
			"byteLength":4032,
			"byteOffset":18552,
			"target":34962
		},
		{
			"buffer":0,
			"byteLength":4032,
			"byteOffset":22584,
			"target":34962
		},
		{
			"buffer":0,
			"byteLength":2688,
			"byteOffset":26616,
			"target":34962
		},
		{
			"buffer":0,
			"byteLength":2688,
			"byteOffset":29304,
			"target":34962
		},
		{
			"buffer":0,
			"byteLength":3360,
			"byteOffset":31992,
			"target":34963
		},
		{
			"buffer":0,
			"byteLength":576,
			"byteOffset":35352,
			"target":34962
		},
		{
			"buffer":0,
			"byteLength":576,
			"byteOffset":35928,
			"target":34962
		},
		{
			"buffer":0,
			"byteLength":384,
			"byteOffset":36504,
			"target":34962
		},
		{
			"buffer":0,
			"byteLength":384,
			"byteOffset":36888,
			"target":34962
		},
		{
			"buffer":0,
			"byteLength":264,
			"byteOffset":37272,
			"target":34963
		},
		{
			"buffer":0,
			"byteLength":576,
			"byteOffset":37536,
			"target":34962
		},
		{
			"buffer":0,
			"byteLength":576,
			"byteOffset":38112,
			"target":34962
		},
		{
			"buffer":0,
			"byteLength":384,
			"byteOffset":38688,
			"target":34962
		},
		{
			"buffer":0,
			"byteLength":384,
			"byteOffset":39072,
			"target":34962
		},
		{
			"buffer":0,
			"byteLength":264,
			"byteOffset":39456,
			"target":34963
		},
		{
			"buffer":0,
			"byteLength":576,
			"byteOffset":39720,
			"target":34962
		},
		{
			"buffer":0,
			"byteLength":576,
			"byteOffset":40296,
			"target":34962
		},
		{
			"buffer":0,
			"byteLength":384,
			"byteOffset":40872,
			"target":34962
		},
		{
			"buffer":0,
			"byteLength":384,
			"byteOffset":41256,
			"target":34962
		},
		{
			"buffer":0,
			"byteLength":264,
			"byteOffset":41640,
			"target":34963
		},
		{
			"buffer":0,
			"byteLength":480,
			"byteOffset":41904,
			"target":34962
		},
		{
			"buffer":0,
			"byteLength":480,
			"byteOffset":42384,
			"target":34962
		},
		{
			"buffer":0,
			"byteLength":320,
			"byteOffset":42864,
			"target":34962
		},
		{
			"buffer":0,
			"byteLength":320,
			"byteOffset":43184,
			"target":34962
		},
		{
			"buffer":0,
			"byteLength":168,
			"byteOffset":43504,
			"target":34963
		},
		{
			"buffer":0,
			"byteLength":480,
			"byteOffset":43672,
			"target":34962
		},
		{
			"buffer":0,
			"byteLength":480,
			"byteOffset":44152,
			"target":34962
		},
		{
			"buffer":0,
			"byteLength":320,
			"byteOffset":44632,
			"target":34962
		},
		{
			"buffer":0,
			"byteLength":320,
			"byteOffset":44952,
			"target":34962
		},
		{
			"buffer":0,
			"byteLength":576,
			"byteOffset":45272,
			"target":34962
		},
		{
			"buffer":0,
			"byteLength":576,
			"byteOffset":45848,
			"target":34962
		},
		{
			"buffer":0,
			"byteLength":384,
			"byteOffset":46424,
			"target":34962
		},
		{
			"buffer":0,
			"byteLength":384,
			"byteOffset":46808,
			"target":34962
		},
		{
			"buffer":0,
			"byteLength":216,
			"byteOffset":47192,
			"target":34963
		}
	],
	"samplers":[
		{
			"magFilter":9729,
			"minFilter":9987
		}
	],
	"buffers":[
		{
			"byteLength":47408,
			"uri":"chopping_block.bin"
		}
	]
}
