{
	"asset":{
		"generator":"Khronos glTF Blender I/O v4.1.63",
		"version":"2.0"
	},
	"scene":0,
	"scenes":[
		{
			"name":"Scene",
			"nodes":[
				0,
				1,
				2,
				3,
				4
			]
		}
	],
	"nodes":[
		{
			"mesh":0,
			"name":"Wood_01_Wood_0",
			"rotation":[
				-0.5000000596046448,
				0.4999999403953552,
				0.5,
				0.5
			],
			"translation":[
				0,
				-2.9802329208905576e-06,
				0
			]
		},
		{
			"mesh":1,
			"name":"Wood_02_Wood_0",
			"rotation":[
				-0.5000000596046448,
				0.4999999403953552,
				0.5,
				0.5
			],
			"translation":[
				0,
				-50.766902923583984,
				0
			]
		},
		{
			"mesh":2,
			"name":"Wood_03_Wood_0",
			"rotation":[
				-0.5000000596046448,
				0.4999999403953552,
				0.5,
				0.5
			],
			"translation":[
				0,
				-95.58357238769531,
				0
			]
		},
		{
			"mesh":3,
			"name":"Wood_03.001_Wood_0",
			"rotation":[
				0.70710688829422,
				0,
				-0.7071066498756409,
				1.3767881057447084e-07
			],
			"translation":[
				83.5091781616211,
				-51.537750244140625,
				4.351860523223877
			]
		},
		{
			"mesh":4,
			"name":"Wood_03.002_Wood_0",
			"rotation":[
				0.70710688829422,
				0,
				-0.7071066498756409,
				1.3767881057447084e-07
			],
			"translation":[
				-80.56533813476562,
				-51.537750244140625,
				4.351860523223877
			]
		}
	],
	"materials":[
		{
			"doubleSided":true,
			"name":"Wood",
			"normalTexture":{
				"index":0
			},
			"occlusionTexture":{
				"index":1
			},
			"pbrMetallicRoughness":{
				"baseColorTexture":{
					"index":2
				},
				"metallicFactor":0,
				"metallicRoughnessTexture":{
					"index":1
				},
				"roughnessFactor":0.8211145401000977
			}
		}
	],
	"meshes":[
		{
			"name":"Wood_01_Wood_0",
			"primitives":[
				{
					"attributes":{
						"POSITION":0,
						"NORMAL":1,
						"TEXCOORD_0":2
					},
					"indices":3,
					"material":0
				}
			]
		},
		{
			"name":"Wood_02_Wood_0",
			"primitives":[
				{
					"attributes":{
						"POSITION":4,
						"NORMAL":5,
						"TEXCOORD_0":6
					},
					"indices":7,
					"material":0
				}
			]
		},
		{
			"name":"Wood_03_Wood_0",
			"primitives":[
				{
					"attributes":{
						"POSITION":8,
						"NORMAL":9,
						"TEXCOORD_0":10
					},
					"indices":3,
					"material":0
				}
			]
		},
		{
			"name":"Wood_03.001_Wood_0",
			"primitives":[
				{
					"attributes":{
						"POSITION":11,
						"NORMAL":12,
						"TEXCOORD_0":13
					},
					"indices":3,
					"material":0
				}
			]
		},
		{
			"name":"Wood_03.002_Wood_0",
			"primitives":[
				{
					"attributes":{
						"POSITION":14,
						"NORMAL":15,
						"TEXCOORD_0":16
					},
					"indices":3,
					"material":0
				}
			]
		}
	],
	"textures":[
		{
			"sampler":0,
			"source":0
		},
		{
			"sampler":0,
			"source":1
		},
		{
			"sampler":0,
			"source":2
		}
	],
	"images":[
		{
			"mimeType":"image/png",
			"name":"Wood_normal",
			"uri":"Wood_normal.png"
		},
		{
			"mimeType":"image/png",
			"name":"Wood_metallicRoughness",
			"uri":"Wood_metallicRoughness.png"
		},
		{
			"mimeType":"image/png",
			"name":"Wood_baseColor",
			"uri":"Wood_baseColor.png"
		}
	],
	"accessors":[
		{
			"bufferView":0,
			"componentType":5126,
			"count":61,
			"max":[
				6,
				100,
				9.165019035339355
			],
			"min":[
				-6,
				-100,
				-6
			],
			"type":"VEC3"
		},
		{
			"bufferView":1,
			"componentType":5126,
			"count":61,
			"type":"VEC3"
		},
		{
			"bufferView":2,
			"componentType":5126,
			"count":61,
			"type":"VEC2"
		},
		{
			"bufferView":3,
			"componentType":5123,
			"count":228,
			"type":"SCALAR"
		},
		{
			"bufferView":4,
			"componentType":5126,
			"count":70,
			"max":[
				6.5001220703125,
				100,
				11.380531311035156
			],
			"min":[
				-6.5001220703125,
				-100.31649780273438,
				-9.639771461486816
			],
			"type":"VEC3"
		},
		{
			"bufferView":5,
			"componentType":5126,
			"count":70,
			"type":"VEC3"
		},
		{
			"bufferView":6,
			"componentType":5126,
			"count":70,
			"type":"VEC2"
		},
		{
			"bufferView":7,
			"componentType":5123,
			"count":276,
			"type":"SCALAR"
		},
		{
			"bufferView":8,
			"componentType":5126,
			"count":61,
			"max":[
				6.903669834136963,
				100,
				6.949505805969238
			],
			"min":[
				-6.903669834136963,
				-100,
				-8.215513229370117
			],
			"type":"VEC3"
		},
		{
			"bufferView":9,
			"componentType":5126,
			"count":61,
			"type":"VEC3"
		},
		{
			"bufferView":10,
			"componentType":5126,
			"count":61,
			"type":"VEC2"
		},
		{
			"bufferView":11,
			"componentType":5126,
			"count":61,
			"max":[
				6.903669834136963,
				100,
				6.949505805969238
			],
			"min":[
				-6.903669834136963,
				-100,
				-8.215513229370117
			],
			"type":"VEC3"
		},
		{
			"bufferView":12,
			"componentType":5126,
			"count":61,
			"type":"VEC3"
		},
		{
			"bufferView":13,
			"componentType":5126,
			"count":61,
			"type":"VEC2"
		},
		{
			"bufferView":14,
			"componentType":5126,
			"count":61,
			"max":[
				6.903669834136963,
				100,
				6.949505805969238
			],
			"min":[
				-6.903669834136963,
				-100,
				-8.215513229370117
			],
			"type":"VEC3"
		},
		{
			"bufferView":15,
			"componentType":5126,
			"count":61,
			"type":"VEC3"
		},
		{
			"bufferView":16,
			"componentType":5126,
			"count":61,
			"type":"VEC2"
		}
	],
	"bufferViews":[
		{
			"buffer":0,
			"byteLength":732,
			"byteOffset":0,
			"target":34962
		},
		{
			"buffer":0,
			"byteLength":732,
			"byteOffset":732,
			"target":34962
		},
		{
			"buffer":0,
			"byteLength":488,
			"byteOffset":1464,
			"target":34962
		},
		{
			"buffer":0,
			"byteLength":456,
			"byteOffset":1952,
			"target":34963
		},
		{
			"buffer":0,
			"byteLength":840,
			"byteOffset":2408,
			"target":34962
		},
		{
			"buffer":0,
			"byteLength":840,
			"byteOffset":3248,
			"target":34962
		},
		{
			"buffer":0,
			"byteLength":560,
			"byteOffset":4088,
			"target":34962
		},
		{
			"buffer":0,
			"byteLength":552,
			"byteOffset":4648,
			"target":34963
		},
		{
			"buffer":0,
			"byteLength":732,
			"byteOffset":5200,
			"target":34962
		},
		{
			"buffer":0,
			"byteLength":732,
			"byteOffset":5932,
			"target":34962
		},
		{
			"buffer":0,
			"byteLength":488,
			"byteOffset":6664,
			"target":34962
		},
		{
			"buffer":0,
			"byteLength":732,
			"byteOffset":7152,
			"target":34962
		},
		{
			"buffer":0,
			"byteLength":732,
			"byteOffset":7884,
			"target":34962
		},
		{
			"buffer":0,
			"byteLength":488,
			"byteOffset":8616,
			"target":34962
		},
		{
			"buffer":0,
			"byteLength":732,
			"byteOffset":9104,
			"target":34962
		},
		{
			"buffer":0,
			"byteLength":732,
			"byteOffset":9836,
			"target":34962
		},
		{
			"buffer":0,
			"byteLength":488,
			"byteOffset":10568,
			"target":34962
		}
	],
	"samplers":[
		{
			"magFilter":9729,
			"minFilter":9987
		}
	],
	"buffers":[
		{
			"byteLength":11056,
			"uri":"fence2.bin"
		}
	]
}
