{
	"asset":{
		"generator":"Khronos glTF Blender I/O v4.1.63",
		"version":"2.0"
	},
	"extensionsUsed":[
		"KHR_texture_transform"
	],
	"extensionsRequired":[
		"KHR_texture_transform"
	],
	"scene":0,
	"scenes":[
		{
			"name":"Scene",
			"nodes":[
				0
			]
		}
	],
	"nodes":[
		{
			"mesh":0,
			"name":"tree"
		}
	],
	"materials":[
		{
			"doubleSided":true,
			"name":"bark_willow_02",
			"normalTexture":{
				"extensions":{
					"KHR_texture_transform":{
						"scale":[
							2,
							1
						]
					}
				},
				"index":0
			},
			"pbrMetallicRoughness":{
				"baseColorTexture":{
					"extensions":{
						"KHR_texture_transform":{
							"scale":[
								2,
								1
							]
						}
					},
					"index":1
				},
				"metallicFactor":0,
				"metallicRoughnessTexture":{
					"extensions":{
						"KHR_texture_transform":{
							"scale":[
								2,
								1
							]
						}
					},
					"index":2
				}
			}
		}
	],
	"meshes":[
		{
			"name":"tree",
			"primitives":[
				{
					"attributes":{
						"POSITION":0,
						"NORMAL":1,
						"TEXCOORD_0":2
					},
					"indices":3,
					"material":0
				}
			]
		}
	],
	"textures":[
		{
			"sampler":0,
			"source":0
		},
		{
			"sampler":0,
			"source":1
		},
		{
			"sampler":0,
			"source":2
		}
	],
	"images":[
		{
			"mimeType":"image/png",
			"name":"bark_willow_02_nor_gl",
			"uri":"bark_willow_02_nor_gl.png"
		},
		{
			"mimeType":"image/jpeg",
			"name":"bark_willow_02_diff_2k",
			"uri":"bark_willow_02_diff_2k.jpg"
		},
		{
			"mimeType":"image/png",
			"name":"bark_willow_02_rough",
			"uri":"bark_willow_02_rough.png"
		}
	],
	"accessors":[
		{
			"bufferView":0,
			"componentType":5126,
			"count":18368,
			"max":[
				2.493309736251831,
				6.484395503997803,
				2.518218755722046
			],
			"min":[
				-2.913334608078003,
				0,
				-2.9490883350372314
			],
			"type":"VEC3"
		},
		{
			"bufferView":1,
			"componentType":5126,
			"count":18368,
			"type":"VEC3"
		},
		{
			"bufferView":2,
			"componentType":5126,
			"count":18368,
			"type":"VEC2"
		},
		{
			"bufferView":3,
			"componentType":5123,
			"count":87696,
			"type":"SCALAR"
		}
	],
	"bufferViews":[
		{
			"buffer":0,
			"byteLength":220416,
			"byteOffset":0,
			"target":34962
		},
		{
			"buffer":0,
			"byteLength":220416,
			"byteOffset":220416,
			"target":34962
		},
		{
			"buffer":0,
			"byteLength":146944,
			"byteOffset":440832,
			"target":34962
		},
		{
			"buffer":0,
			"byteLength":175392,
			"byteOffset":587776,
			"target":34963
		}
	],
	"samplers":[
		{
			"magFilter":9729,
			"minFilter":9987
		}
	],
	"buffers":[
		{
			"byteLength":763168,
			"uri":"adrien_tree.bin"
		}
	]
}
