{
  "accessors": [
    {
      "bufferView": 2,
      "componentType": 5126,
      "count": 17864,
      "max": [
        29.455163955688477,
        25.013151168823242,
        16.029115676879883
      ],
      "min": [
        -29.54586410522461,
        -8.371830940246582,
        -14.495104789733887
      ],
      "type": "VEC3"
    },
    {
      "bufferView": 2,
      "byteOffset": 214368,
      "componentType": 5126,
      "count": 17864,
      "max": [
        0.9999564290046692,
        0.9999563097953796,
        0.9999653697013855
      ],
      "min": [
        -0.9999601244926453,
        -0.9998235106468201,
        -0.9999306797981262
      ],
      "type": "VEC3"
    },
    {
      "bufferView": 3,
      "componentType": 5126,
      "count": 17864,
      "max": [
        0.9999604821205139,
        0.9997773766517639,
        0.9998660683631897,
        1.0
      ],
      "min": [
        -0.9998652935028076,
        -0.9998000264167786,
        -0.9999692440032959,
        1.0
      ],
      "type": "VEC4"
    },
    {
      "bufferView": 1,
      "componentType": 5126,
      "count": 17864,
      "max": [
        0.995796263217926,
        0.9998779296875
      ],
      "min": [
        0.0001220703125,
        0.0001220703125
      ],
      "type": "VEC2"
    },
    {
      "bufferView": 0,
      "componentType": 5125,
      "count": 97833,
      "type": "SCALAR"
    }
  ],
  "asset": {
    "extras": {
      "author": "Auxiar Molkhun (https://sketchfab.com/AuxiarMolkhun)",
      "license": "CC-BY-4.0 (http://creativecommons.org/licenses/by/4.0/)",
      "source": "https://sketchfab.com/3d-models/demon-skull-0cb0efd8bd8a405f89ce5f757ecf6e8d",
      "title": "Demon Skull"
    },
    "generator": "Sketchfab-12.94.0",
    "version": "2.0"
  },
  "bufferViews": [
    {
      "buffer": 0,
      "byteLength": 391332,
      "name": "floatBufferViews",
      "target": 34963
    },
    {
      "buffer": 0,
      "byteLength": 142912,
      "byteOffset": 391332,
      "byteStride": 8,
      "name": "floatBufferViews",
      "target": 34962
    },
    {
      "buffer": 0,
      "byteLength": 428736,
      "byteOffset": 534244,
      "byteStride": 12,
      "name": "floatBufferViews",
      "target": 34962
    },
    {
      "buffer": 0,
      "byteLength": 285824,
      "byteOffset": 962980,
      "byteStride": 16,
      "name": "floatBufferViews",
      "target": 34962
    }
  ],
  "buffers": [
    {
      "byteLength": 1248804,
      "uri": "scene.bin"
    }
  ],
  "images": [
    {
      "uri": "textures/DemonSkull_baseColor.png"
    },
    {
      "uri": "textures/DemonSkull_metallicRoughness.png"
    },
    {
      "uri": "textures/DemonSkull_normal.png"
    }
  ],
  "materials": [
    {
      "doubleSided": true,
      "name": "DemonSkull",
      "normalTexture": {
        "index": 2
      },
      "occlusionTexture": {
        "index": 1
      },
      "pbrMetallicRoughness": {
        "baseColorTexture": {
          "index": 0
        },
        "metallicFactor": 0.0,
        "metallicRoughnessTexture": {
          "index": 1
        }
      }
    }
  ],
  "meshes": [
    {
      "name": "DemonSkull_DemonSkull_0",
      "primitives": [
        {
          "attributes": {
            "NORMAL": 1,
            "POSITION": 0,
            "TANGENT": 2,
            "TEXCOORD_0": 3
          },
          "indices": 4,
          "material": 0,
          "mode": 4
        }
      ]
    }
  ],
  "nodes": [
    {
      "children": [
        1
      ],
      "matrix": [
        1.0,
        0.0,
        0.0,
        0.0,
        0.0,
        2.220446049250313e-16,
        -1.0,
        0.0,
        0.0,
        1.0,
        2.220446049250313e-16,
        0.0,
        0.0,
        0.0,
        0.0,
        1.0
      ],
      "name": "Sketchfab_model"
    },
    {
      "children": [
        2
      ],
      "matrix": [
        0.009999999776482582,
        0.0,
        0.0,
        0.0,
        0.0,
        0.0,
        0.009999999776482582,
        0.0,
        0.0,
        -0.009999999776482582,
        0.0,
        0.0,
        0.0,
        0.0,
        0.0,
        1.0
      ],
      "name": "635b2fa1e0e14d9aad6bf35525509005.fbx"
    },
    {
      "children": [
        3
      ],
      "name": "RootNode"
    },
    {
      "children": [
        4
      ],
      "matrix": [
        0.9928766489028931,
        0.0,
        0.0,
        0.0,
        0.0,
        0.9928766489028931,
        0.0,
        0.0,
        0.0,
        0.0,
        0.9928766489028931,
        0.0,
        -7.165269282412453e-16,
        192.71897888183594,
        -0.743073582649231,
        1.0
      ],
      "name": "DemonSkull"
    },
    {
      "mesh": 0,
      "name": "DemonSkull_DemonSkull_0"
    }
  ],
  "samplers": [
    {
      "magFilter": 9729,
      "minFilter": 9987,
      "wrapS": 10497,
      "wrapT": 10497
    }
  ],
  "scene": 0,
  "scenes": [
    {
      "name": "Sketchfab_Scene",
      "nodes": [
        0
      ]
    }
  ],
  "textures": [
    {
      "sampler": 0,
      "source": 0
    },
    {
      "sampler": 0,
      "source": 1
    },
    {
      "sampler": 0,
      "source": 2
    }
  ]
}
