{
  "accessors": [
    {
      "bufferView": 2,
      "componentType": 5126,
      "count": 13804,
      "max": [
        2.9614436626434326,
        1.3996492624282837,
        4.032253742218018
      ],
      "min": [
        -2.9239258766174316,
        -2.0861144065856934,
        0.006726741790771484
      ],
      "type": "VEC3"
    },
    {
      "bufferView": 2,
      "byteOffset": 165648,
      "componentType": 5126,
      "count": 13804,
      "max": [
        1.0,
        1.0,
        1.0
      ],
      "min": [
        -1.0,
        -1.0,
        -1.0
      ],
      "type": "VEC3"
    },
    {
      "bufferView": 3,
      "componentType": 5126,
      "count": 13804,
      "max": [
        1.0,
        1.0,
        1.0,
        1.0
      ],
      "min": [
        -1.0,
        -1.0,
        -1.0,
        1.0
      ],
      "type": "VEC4"
    },
    {
      "bufferView": 1,
      "componentType": 5126,
      "count": 13804,
      "max": [
        0.9984756112098694,
        0.9983706474304199
      ],
      "min": [
        0.001516388962045312,
        0.001515531912446022
      ],
      "type": "VEC2"
    },
    {
      "bufferView": 1,
      "byteOffset": 110432,
      "componentType": 5126,
      "count": 13804,
      "max": [
        0.9984756112098694,
        0.9983706474304199
      ],
      "min": [
        0.001516388962045312,
        0.001515531912446022
      ],
      "type": "VEC2"
    },
    {
      "bufferView": 0,
      "componentType": 5125,
      "count": 58566,
      "type": "SCALAR"
    }
  ],
  "asset": {
    "extras": {
      "author": "sharetextures (https://sketchfab.com/sharetextures)",
      "license": "CC-BY-4.0 (http://creativecommons.org/licenses/by/4.0/)",
      "source": "https://sketchfab.com/3d-models/gallow-1-8891d98ca9e14f22b6a35b1969916dc3",
      "title": "Gallow 1"
    },
    "generator": "Sketchfab-15.19.0",
    "version": "2.0"
  },
  "bufferViews": [
    {
      "buffer": 0,
      "byteLength": 234264,
      "name": "floatBufferViews",
      "target": 34963
    },
    {
      "buffer": 0,
      "byteLength": 220864,
      "byteOffset": 234264,
      "byteStride": 8,
      "name": "floatBufferViews",
      "target": 34962
    },
    {
      "buffer": 0,
      "byteLength": 331296,
      "byteOffset": 455128,
      "byteStride": 12,
      "name": "floatBufferViews",
      "target": 34962
    },
    {
      "buffer": 0,
      "byteLength": 220864,
      "byteOffset": 786424,
      "byteStride": 16,
      "name": "floatBufferViews",
      "target": 34962
    }
  ],
  "buffers": [
    {
      "byteLength": 1007288,
      "uri": "scene.bin"
    }
  ],
  "images": [
    {
      "uri": "textures/Gallow_1_baseColor.png"
    },
    {
      "uri": "textures/Gallow_1_metallicRoughness.png"
    },
    {
      "uri": "textures/Gallow_1_normal.png"
    }
  ],
  "materials": [
    {
      "doubleSided": true,
      "name": "Gallow_1",
      "normalTexture": {
        "index": 2
      },
      "occlusionTexture": {
        "index": 1
      },
      "pbrMetallicRoughness": {
        "baseColorTexture": {
          "index": 0
        },
        "metallicRoughnessTexture": {
          "index": 1
        }
      }
    }
  ],
  "meshes": [
    {
      "name": "Gallow_1_Gallow_1_0",
      "primitives": [
        {
          "attributes": {
            "NORMAL": 1,
            "POSITION": 0,
            "TANGENT": 2,
            "TEXCOORD_0": 3,
            "TEXCOORD_1": 4
          },
          "indices": 5,
          "material": 0,
          "mode": 4
        }
      ]
    }
  ],
  "nodes": [
    {
      "children": [
        1
      ],
      "matrix": [
        1.0,
        0.0,
        0.0,
        0.0,
        0.0,
        2.220446049250313e-16,
        -1.0,
        0.0,
        0.0,
        1.0,
        2.220446049250313e-16,
        0.0,
        0.0,
        0.0,
        0.0,
        1.0
      ],
      "name": "Sketchfab_model"
    },
    {
      "children": [
        2
      ],
      "matrix": [
        0.009999999776482582,
        0.0,
        0.0,
        0.0,
        0.0,
        0.0,
        0.009999999776482582,
        0.0,
        0.0,
        -0.009999999776482582,
        0.0,
        0.0,
        0.0,
        0.0,
        0.0,
        1.0
      ],
      "name": "3D_gallow_1.fbx"
    },
    {
      "children": [
        3
      ],
      "name": "RootNode"
    },
    {
      "children": [
        4
      ],
      "matrix": [
        100.0,
        0.0,
        0.0,
        0.0,
        0.0,
        -1.629206793918314e-05,
        -99.99999999999868,
        0.0,
        0.0,
        99.99999999999868,
        -1.629206793918314e-05,
        0.0,
        0.0,
        0.0,
        0.0,
        1.0
      ],
      "name": "Gallow_1"
    },
    {
      "mesh": 0,
      "name": "Gallow_1_Gallow_1_0"
    }
  ],
  "samplers": [
    {
      "magFilter": 9729,
      "minFilter": 9987,
      "wrapS": 10497,
      "wrapT": 10497
    }
  ],
  "scene": 0,
  "scenes": [
    {
      "name": "Sketchfab_Scene",
      "nodes": [
        0
      ]
    }
  ],
  "textures": [
    {
      "sampler": 0,
      "source": 0
    },
    {
      "sampler": 0,
      "source": 1
    },
    {
      "sampler": 0,
      "source": 2
    }
  ]
}
