{
	"asset":{
		"generator":"Khronos glTF Blender I/O v4.1.63",
		"version":"2.0"
	},
	"extensionsUsed":[
		"KHR_materials_specular",
		"KHR_materials_ior",
		"KHR_texture_transform"
	],
	"extensionsRequired":[
		"KHR_texture_transform"
	],
	"scene":0,
	"scenes":[
		{
			"name":"Scene",
			"nodes":[
				0
			]
		}
	],
	"nodes":[
		{
			"mesh":0,
			"name":"monk1",
			"rotation":[
				0.70710688829422,
				0,
				0,
				0.7071066498756409
			],
			"translation":[
				1.7109155654907227,
				0,
				0
			]
		}
	],
	"materials":[
		{
			"doubleSided":true,
			"extensions":{
				"KHR_materials_specular":{
					"specularFactor":0
				},
				"KHR_materials_ior":{
					"ior":1.4500000476837158
				}
			},
			"name":"0_Cloth",
			"normalTexture":{
				"index":0,
				"scale":0.4000000059604645
			},
			"pbrMetallicRoughness":{
				"baseColorTexture":{
					"index":1
				},
				"metallicFactor":0,
				"metallicRoughnessTexture":{
					"index":2
				}
			}
		},
		{
			"doubleSided":true,
			"extensions":{
				"KHR_materials_specular":{
					"specularFactor":0.1818181574344635
				},
				"KHR_materials_ior":{
					"ior":1.4500000476837158
				}
			},
			"name":"0_Leather",
			"normalTexture":{
				"extensions":{
					"KHR_texture_transform":{
						"offset":[
							-7.999999046325684,
							0
						]
					}
				},
				"index":3,
				"scale":0.6000000238418579
			},
			"pbrMetallicRoughness":{
				"baseColorTexture":{
					"extensions":{
						"KHR_texture_transform":{
							"offset":[
								-7.999999046325684,
								0
							]
						}
					},
					"index":4
				},
				"metallicFactor":0.2909090518951416,
				"metallicRoughnessTexture":{
					"extensions":{
						"KHR_texture_transform":{
							"offset":[
								-7.999999046325684,
								0
							]
						}
					},
					"index":5
				}
			}
		},
		{
			"alphaMode":"BLEND",
			"doubleSided":true,
			"extensions":{
				"KHR_materials_specular":{
					"specularColorFactor":[
						2.0,
						2.0,
						2.0
					]
				},
				"KHR_materials_ior":{
					"ior":1.4500000476837158
				}
			},
			"name":"0_beard",
			"normalTexture":{
				"index":6
			},
			"pbrMetallicRoughness":{
				"baseColorTexture":{
					"index":7
				}
			}
		},
		{
			"doubleSided":true,
			"extensions":{
				"KHR_materials_specular":{
					"specularColorFactor":[
						2.0,
						2.0,
						2.0
					]
				},
				"KHR_materials_ior":{
					"ior":1.4500000476837158
				}
			},
			"name":"0_Eyes",
			"pbrMetallicRoughness":{
				"baseColorTexture":{
					"index":8
				}
			}
		},
		{
			"doubleSided":true,
			"extensions":{
				"KHR_materials_specular":{
					"specularFactor":0.11818186938762665
				},
				"KHR_materials_ior":{
					"ior":1.4500000476837158
				}
			},
			"name":"0_MaleSkin",
			"normalTexture":{
				"index":9,
				"scale":0.19999998807907104
			},
			"pbrMetallicRoughness":{
				"baseColorTexture":{
					"index":10
				},
				"metallicFactor":0,
				"metallicRoughnessTexture":{
					"index":11
				}
			}
		}
	],
	"meshes":[
		{
			"name":"Merged_Pattern2D_181741",
			"primitives":[
				{
					"attributes":{
						"POSITION":0,
						"NORMAL":1,
						"TEXCOORD_0":2
					},
					"indices":3,
					"material":0
				},
				{
					"attributes":{
						"POSITION":4,
						"NORMAL":5,
						"TEXCOORD_0":6
					},
					"indices":7,
					"material":1
				},
				{
					"attributes":{
						"POSITION":8,
						"NORMAL":9,
						"TEXCOORD_0":10
					},
					"indices":11
				},
				{
					"attributes":{
						"POSITION":12,
						"NORMAL":13,
						"TEXCOORD_0":14
					},
					"indices":15,
					"material":2
				},
				{
					"attributes":{
						"POSITION":16,
						"NORMAL":17,
						"TEXCOORD_0":18
					},
					"indices":19,
					"material":3
				},
				{
					"attributes":{
						"POSITION":20,
						"NORMAL":21,
						"TEXCOORD_0":22
					},
					"indices":23,
					"material":4
				}
			]
		}
	],
	"textures":[
		{
			"sampler":0,
			"source":0
		},
		{
			"sampler":0,
			"source":1
		},
		{
			"sampler":0,
			"source":2
		},
		{
			"sampler":0,
			"source":3
		},
		{
			"sampler":0,
			"source":4
		},
		{
			"sampler":0,
			"source":5
		},
		{
			"sampler":0,
			"source":6
		},
		{
			"sampler":0,
			"source":6
		},
		{
			"sampler":0,
			"source":7
		},
		{
			"sampler":0,
			"source":8
		},
		{
			"sampler":0,
			"source":9
		},
		{
			"sampler":0,
			"source":10
		}
	],
	"images":[
		{
			"mimeType":"image/jpeg",
			"name":"Cloak_nm",
			"uri":"Cloak_nm.jpg"
		},
		{
			"mimeType":"image/png",
			"name":"Cloak",
			"uri":"Cloak.png"
		},
		{
			"mimeType":"image/png",
			"name":"Cloak_Roug",
			"uri":"Cloak_Roug.png"
		},
		{
			"mimeType":"image/jpeg",
			"name":"Leather_NM",
			"uri":"Leather_NM.jpg"
		},
		{
			"mimeType":"image/jpeg",
			"name":"Leather_Dif",
			"uri":"Leather_Dif.jpg"
		},
		{
			"mimeType":"image/png",
			"name":"Leather_RG",
			"uri":"Leather_RG.png"
		},
		{
			"mimeType":"image/png",
			"name":"Hair_Color",
			"uri":"Hair_Color.png"
		},
		{
			"mimeType":"image/png",
			"name":"Diffuse Texture",
			"uri":"Diffuse%20Texture.png"
		},
		{
			"mimeType":"image/jpeg",
			"name":"male_Rough",
			"uri":"male_Rough.jpg"
		},
		{
			"mimeType":"image/jpeg",
			"name":"male_TXTR",
			"uri":"male_TXTR.jpg"
		},
		{
			"mimeType":"image/png",
			"name":"male_Rough",
			"uri":"male_Rough.png"
		}
	],
	"accessors":[
		{
			"bufferView":0,
			"componentType":5126,
			"count":39259,
			"max":[
				-2.180124044418335,
				0.3376989960670471,
				0.0005610000225715339
			],
			"min":[
				-2.872615098953247,
				-0.365776002407074,
				-1.741760015487671
			],
			"type":"VEC3"
		},
		{
			"bufferView":1,
			"componentType":5126,
			"count":39259,
			"type":"VEC3"
		},
		{
			"bufferView":2,
			"componentType":5126,
			"count":39259,
			"type":"VEC2"
		},
		{
			"bufferView":3,
			"componentType":5123,
			"count":200544,
			"type":"SCALAR"
		},
		{
			"bufferView":4,
			"componentType":5126,
			"count":132,
			"max":[
				-2.3573620319366455,
				0.1375029981136322,
				-0.9969519972801208
			],
			"min":[
				-2.689049005508423,
				-0.12793700397014618,
				-1.0384169816970825
			],
			"type":"VEC3"
		},
		{
			"bufferView":5,
			"componentType":5126,
			"count":132,
			"type":"VEC3"
		},
		{
			"bufferView":6,
			"componentType":5126,
			"count":132,
			"type":"VEC2"
		},
		{
			"bufferView":7,
			"componentType":5123,
			"count":522,
			"type":"SCALAR"
		},
		{
			"bufferView":8,
			"componentType":5126,
			"count":221,
			"max":[
				-2.3573620319366455,
				0.1375029981136322,
				-0.9968119859695435
			],
			"min":[
				-2.689049005508423,
				-0.12793700397014618,
				-1.0384169816970825
			],
			"type":"VEC3"
		},
		{
			"bufferView":9,
			"componentType":5126,
			"count":221,
			"type":"VEC3"
		},
		{
			"bufferView":10,
			"componentType":5126,
			"count":221,
			"type":"VEC2"
		},
		{
			"bufferView":11,
			"componentType":5123,
			"count":1050,
			"type":"SCALAR"
		},
		{
			"bufferView":12,
			"componentType":5126,
			"count":1372,
			"max":[
				-2.4665579795837402,
				0.2845030128955841,
				-1.418869972229004
			],
			"min":[
				-2.6191670894622803,
				0.12697100639343262,
				-1.6105209589004517
			],
			"type":"VEC3"
		},
		{
			"bufferView":13,
			"componentType":5126,
			"count":1372,
			"type":"VEC3"
		},
		{
			"bufferView":14,
			"componentType":5126,
			"count":1372,
			"type":"VEC2"
		},
		{
			"bufferView":15,
			"componentType":5123,
			"count":3528,
			"type":"SCALAR"
		},
		{
			"bufferView":16,
			"componentType":5126,
			"count":2024,
			"max":[
				-2.510241985321045,
				0.2543100118637085,
				-1.5434670448303223
			],
			"min":[
				-2.6047050952911377,
				0.21706600487232208,
				-1.5819729566574097
			],
			"type":"VEC3"
		},
		{
			"bufferView":17,
			"componentType":5126,
			"count":2024,
			"type":"VEC3"
		},
		{
			"bufferView":18,
			"componentType":5126,
			"count":2024,
			"type":"VEC2"
		},
		{
			"bufferView":19,
			"componentType":5123,
			"count":11268,
			"type":"SCALAR"
		},
		{
			"bufferView":20,
			"componentType":5126,
			"count":36381,
			"max":[
				-2.203037977218628,
				0.32248198986053467,
				0.05362899973988533
			],
			"min":[
				-2.828794002532959,
				-0.34058699011802673,
				-1.7203329801559448
			],
			"type":"VEC3"
		},
		{
			"bufferView":21,
			"componentType":5126,
			"count":36381,
			"type":"VEC3"
		},
		{
			"bufferView":22,
			"componentType":5126,
			"count":36381,
			"type":"VEC2"
		},
		{
			"bufferView":23,
			"componentType":5123,
			"count":211872,
			"type":"SCALAR"
		}
	],
	"bufferViews":[
		{
			"buffer":0,
			"byteLength":471108,
			"byteOffset":0,
			"target":34962
		},
		{
			"buffer":0,
			"byteLength":471108,
			"byteOffset":471108,
			"target":34962
		},
		{
			"buffer":0,
			"byteLength":314072,
			"byteOffset":942216,
			"target":34962
		},
		{
			"buffer":0,
			"byteLength":401088,
			"byteOffset":1256288,
			"target":34963
		},
		{
			"buffer":0,
			"byteLength":1584,
			"byteOffset":1657376,
			"target":34962
		},
		{
			"buffer":0,
			"byteLength":1584,
			"byteOffset":1658960,
			"target":34962
		},
		{
			"buffer":0,
			"byteLength":1056,
			"byteOffset":1660544,
			"target":34962
		},
		{
			"buffer":0,
			"byteLength":1044,
			"byteOffset":1661600,
			"target":34963
		},
		{
			"buffer":0,
			"byteLength":2652,
			"byteOffset":1662644,
			"target":34962
		},
		{
			"buffer":0,
			"byteLength":2652,
			"byteOffset":1665296,
			"target":34962
		},
		{
			"buffer":0,
			"byteLength":1768,
			"byteOffset":1667948,
			"target":34962
		},
		{
			"buffer":0,
			"byteLength":2100,
			"byteOffset":1669716,
			"target":34963
		},
		{
			"buffer":0,
			"byteLength":16464,
			"byteOffset":1671816,
			"target":34962
		},
		{
			"buffer":0,
			"byteLength":16464,
			"byteOffset":1688280,
			"target":34962
		},
		{
			"buffer":0,
			"byteLength":10976,
			"byteOffset":1704744,
			"target":34962
		},
		{
			"buffer":0,
			"byteLength":7056,
			"byteOffset":1715720,
			"target":34963
		},
		{
			"buffer":0,
			"byteLength":24288,
			"byteOffset":1722776,
			"target":34962
		},
		{
			"buffer":0,
			"byteLength":24288,
			"byteOffset":1747064,
			"target":34962
		},
		{
			"buffer":0,
			"byteLength":16192,
			"byteOffset":1771352,
			"target":34962
		},
		{
			"buffer":0,
			"byteLength":22536,
			"byteOffset":1787544,
			"target":34963
		},
		{
			"buffer":0,
			"byteLength":436572,
			"byteOffset":1810080,
			"target":34962
		},
		{
			"buffer":0,
			"byteLength":436572,
			"byteOffset":2246652,
			"target":34962
		},
		{
			"buffer":0,
			"byteLength":291048,
			"byteOffset":2683224,
			"target":34962
		},
		{
			"buffer":0,
			"byteLength":423744,
			"byteOffset":2974272,
			"target":34963
		}
	],
	"samplers":[
		{
			"magFilter":9729,
			"minFilter":9987
		}
	],
	"buffers":[
		{
			"byteLength":3398016,
			"uri":"Monk_v001.bin"
		}
	]
}
