{
	"asset":{
		"generator":"Khronos glTF Blender I/O v4.1.63",
		"version":"2.0"
	},
	"scene":0,
	"scenes":[
		{
			"name":"Scene",
			"nodes":[
				0
			]
		}
	],
	"nodes":[
		{
			"mesh":0,
			"name":"Family_Tomb_04",
			"translation":[
				30.339109420776367,
				0,
				-5.588386535644531
			]
		}
	],
	"materials":[
		{
			"doubleSided":true,
			"name":"familytomb04",
			"normalTexture":{
				"index":0
			},
			"pbrMetallicRoughness":{
				"baseColorTexture":{
					"index":1
				},
				"metallicRoughnessTexture":{
					"index":2
				}
			}
		}
	],
	"meshes":[
		{
			"name":"Family_Tomb_04",
			"primitives":[
				{
					"attributes":{
						"POSITION":0,
						"NORMAL":1,
						"TEXCOORD_0":2
					},
					"indices":3,
					"material":0
				}
			]
		}
	],
	"textures":[
		{
			"sampler":0,
			"source":0
		},
		{
			"sampler":0,
			"source":1
		},
		{
			"sampler":0,
			"source":2
		}
	],
	"images":[
		{
			"mimeType":"image/png",
			"name":"FamilyTomb04_n",
			"uri":"FamilyTomb04_n.png"
		},
		{
			"mimeType":"image/png",
			"name":"FamilyTomb04_d",
			"uri":"FamilyTomb04_d.png"
		},
		{
			"mimeType":"image/png",
			"name":"FamilyTomb04_m-FamilyTomb04_r",
			"uri":"FamilyTomb04_m-FamilyTomb04_r.png"
		}
	],
	"accessors":[
		{
			"bufferView":0,
			"componentType":5126,
			"count":10783,
			"max":[
				2.149034261703491,
				5.503024578094482,
				1.1806769371032715
			],
			"min":[
				-2.2247135639190674,
				-3.2584134146418364e-07,
				-1.180676817893982
			],
			"type":"VEC3"
		},
		{
			"bufferView":1,
			"componentType":5126,
			"count":10783,
			"type":"VEC3"
		},
		{
			"bufferView":2,
			"componentType":5126,
			"count":10783,
			"type":"VEC2"
		},
		{
			"bufferView":3,
			"componentType":5123,
			"count":16956,
			"type":"SCALAR"
		}
	],
	"bufferViews":[
		{
			"buffer":0,
			"byteLength":129396,
			"byteOffset":0,
			"target":34962
		},
		{
			"buffer":0,
			"byteLength":129396,
			"byteOffset":129396,
			"target":34962
		},
		{
			"buffer":0,
			"byteLength":86264,
			"byteOffset":258792,
			"target":34962
		},
		{
			"buffer":0,
			"byteLength":33912,
			"byteOffset":345056,
			"target":34963
		}
	],
	"samplers":[
		{
			"magFilter":9729,
			"minFilter":9987
		}
	],
	"buffers":[
		{
			"byteLength":378968,
			"uri":"SmallMaus3.bin"
		}
	]
}
