{
  "accessors": [
    {
      "bufferView": 2,
      "componentType": 5126,
      "count": 8541,
      "max": [
        7.607156753540039,
        8.811323165893555,
        1.996060848236084
      ],
      "min": [
        -6.518182754516602,
        -1.3333197832107544,
        -3.019301652908325
      ],
      "type": "VEC3"
    },
    {
      "bufferView": 2,
      "byteOffset": 102492,
      "componentType": 5126,
      "count": 8541,
      "max": [
        0.9998450875282288,
        0.9993805885314941,
        0.9998450875282288
      ],
      "min": [
        -0.9999690055847168,
        -0.9998450875282288,
        -0.9995972514152527
      ],
      "type": "VEC3"
    },
    {
      "bufferView": 3,
      "componentType": 5126,
      "count": 8541,
      "max": [
        0.9999380111694336,
        0.9998450875282288,
        0.9999380111694336,
        1.0
      ],
      "min": [
        -0.9996901154518127,
        -0.9998450875282288,
        -1.0,
        1.0
      ],
      "type": "VEC4"
    },
    {
      "bufferView": 1,
      "componentType": 5126,
      "count": 8541,
      "max": [
        0.763671875,
        0.99951171875
      ],
      "min": [
        0.00012886524200439453,
        0.00012886524200439453
      ],
      "type": "VEC2"
    },
    {
      "bufferView": 1,
      "byteOffset": 68328,
      "componentType": 5126,
      "count": 8541,
      "max": [
        0.9892578125,
        0.99169921875
      ],
      "min": [
        0.00806427001953125,
        0.00806427001953125
      ],
      "type": "VEC2"
    },
    {
      "bufferView": 1,
      "byteOffset": 136656,
      "componentType": 5126,
      "count": 8541,
      "max": [
        0.763671875,
        0.99951171875
      ],
      "min": [
        0.00012886524200439453,
        0.00012886524200439453
      ],
      "type": "VEC2"
    },
    {
      "bufferView": 1,
      "byteOffset": 204984,
      "componentType": 5126,
      "count": 8541,
      "max": [
        0.763671875,
        0.99951171875
      ],
      "min": [
        0.00012886524200439453,
        0.00012886524200439453
      ],
      "type": "VEC2"
    },
    {
      "bufferView": 1,
      "byteOffset": 273312,
      "componentType": 5126,
      "count": 8541,
      "max": [
        0.763671875,
        0.99951171875
      ],
      "min": [
        0.00012886524200439453,
        0.00012886524200439453
      ],
      "type": "VEC2"
    },
    {
      "bufferView": 1,
      "byteOffset": 341640,
      "componentType": 5126,
      "count": 8541,
      "max": [
        0.763671875,
        0.99951171875
      ],
      "min": [
        0.00012886524200439453,
        0.00012886524200439453
      ],
      "type": "VEC2"
    },
    {
      "bufferView": 0,
      "componentType": 5125,
      "count": 49152,
      "type": "SCALAR"
    }
  ],
  "asset": {
    "extras": {
      "author": "Alex791 (https://sketchfab.com/alexcarralero791)",
      "license": "CC-BY-4.0 (http://creativecommons.org/licenses/by/4.0/)",
      "source": "https://sketchfab.com/3d-models/rock5-8a66e3d11c934b79af40a6efe9a9af2f",
      "title": "Rock5"
    },
    "generator": "Sketchfab-16.7.0",
    "version": "2.0"
  },
  "bufferViews": [
    {
      "buffer": 0,
      "byteLength": 196608,
      "name": "floatBufferViews",
      "target": 34963
    },
    {
      "buffer": 0,
      "byteLength": 409968,
      "byteOffset": 196608,
      "byteStride": 8,
      "name": "floatBufferViews",
      "target": 34962
    },
    {
      "buffer": 0,
      "byteLength": 204984,
      "byteOffset": 606576,
      "byteStride": 12,
      "name": "floatBufferViews",
      "target": 34962
    },
    {
      "buffer": 0,
      "byteLength": 136656,
      "byteOffset": 811560,
      "byteStride": 16,
      "name": "floatBufferViews",
      "target": 34962
    }
  ],
  "buffers": [
    {
      "byteLength": 948216,
      "uri": "scene.bin"
    }
  ],
  "extensionsRequired": [
    "KHR_materials_pbrSpecularGlossiness"
  ],
  "extensionsUsed": [
    "KHR_materials_pbrSpecularGlossiness"
  ],
  "images": [
    {
      "uri": "textures/M_Rock5_diffuse.png"
    },
    {
      "uri": "textures/M_Rock5_specularGlossiness.png"
    },
    {
      "uri": "textures/M_Rock5_normal.png"
    },
    {
      "uri": "textures/M_Rock5_occlusion.png"
    }
  ],
  "materials": [
    {
      "extensions": {
        "KHR_materials_pbrSpecularGlossiness": {
          "diffuseFactor": [
            1.0,
            1.0,
            1.0,
            1.0
          ],
          "diffuseTexture": {
            "index": 0
          },
          "glossinessFactor": 1.0,
          "specularFactor": [
            0.5399296045133707,
            0.5399296045133707,
            0.5399296045133707
          ],
          "specularGlossinessTexture": {
            "index": 1
          }
        }
      },
      "name": "M_Rock5",
      "normalTexture": {
        "index": 2
      },
      "occlusionTexture": {
        "index": 3
      }
    }
  ],
  "meshes": [
    {
      "name": "Object_0",
      "primitives": [
        {
          "attributes": {
            "NORMAL": 1,
            "POSITION": 0,
            "TANGENT": 2,
            "TEXCOORD_0": 3,
            "TEXCOORD_1": 4,
            "TEXCOORD_2": 5,
            "TEXCOORD_3": 6,
            "TEXCOORD_4": 7,
            "TEXCOORD_5": 8
          },
          "indices": 9,
          "material": 0,
          "mode": 4
        }
      ]
    }
  ],
  "nodes": [
    {
      "children": [
        1
      ],
      "matrix": [
        1.0,
        0.0,
        0.0,
        0.0,
        0.0,
        2.220446049250313e-16,
        -1.0,
        0.0,
        0.0,
        1.0,
        2.220446049250313e-16,
        0.0,
        0.0,
        0.0,
        0.0,
        1.0
      ],
      "name": "Sketchfab_model"
    },
    {
      "children": [
        2
      ],
      "name": "root"
    },
    {
      "children": [
        3
      ],
      "matrix": [
        1.0,
        0.0,
        0.0,
        0.0,
        0.0,
        2.220446049250313e-16,
        1.0,
        0.0,
        0.0,
        -1.0,
        2.220446049250313e-16,
        0.0,
        0.0,
        0.0,
        0.0,
        1.0
      ],
      "name": "GLTF_SceneRootNode"
    },
    {
      "children": [
        4
      ],
      "name": "_0"
    },
    {
      "mesh": 0,
      "name": "Object_4"
    }
  ],
  "samplers": [
    {
      "magFilter": 9729,
      "minFilter": 9987,
      "wrapS": 10497,
      "wrapT": 10497
    }
  ],
  "scene": 0,
  "scenes": [
    {
      "name": "Sketchfab_Scene",
      "nodes": [
        0
      ]
    }
  ],
  "textures": [
    {
      "sampler": 0,
      "source": 0
    },
    {
      "sampler": 0,
      "source": 1
    },
    {
      "sampler": 0,
      "source": 2
    },
    {
      "sampler": 0,
      "source": 3
    }
  ]
}
