{
  "accessors": [
    {
      "bufferView": 2,
      "componentType": 5126,
      "count": 168,
      "max": [
        1.1721950769424438,
        0.9097411632537842,
        0.03643116354942322
      ],
      "min": [
        -0.022795049473643303,
        -0.9097411632537842,
        -2.1321864128112793
      ],
      "type": "VEC3"
    },
    {
      "bufferView": 2,
      "byteOffset": 2016,
      "componentType": 5126,
      "count": 168,
      "max": [
        1.0,
        1.0,
        1.0
      ],
      "min": [
        -1.0,
        -1.0,
        -1.0
      ],
      "type": "VEC3"
    },
    {
      "bufferView": 3,
      "componentType": 5126,
      "count": 168,
      "max": [
        1.0,
        0.553276777267456,
        1.0,
        1.0
      ],
      "min": [
        -1.0,
        -0.5532762408256531,
        -0.9995653033256531,
        1.0
      ],
      "type": "VEC4"
    },
    {
      "bufferView": 1,
      "componentType": 5126,
      "count": 168,
      "max": [
        0.9737883806228638,
        0.9909228086471558
      ],
      "min": [
        0.009077221155166626,
        0.009077221155166626
      ],
      "type": "VEC2"
    },
    {
      "bufferView": 0,
      "componentType": 5125,
      "count": 396,
      "type": "SCALAR"
    },
    {
      "bufferView": 2,
      "byteOffset": 4032,
      "componentType": 5126,
      "count": 48,
      "max": [
        0.6354696154594421,
        0.13559848070144653,
        0.03683243691921234
      ],
      "min": [
        -0.6354696154594421,
        -1.5685205459594727,
        -0.03683243691921234
      ],
      "type": "VEC3"
    },
    {
      "bufferView": 2,
      "byteOffset": 4608,
      "componentType": 5126,
      "count": 48,
      "max": [
        1.0,
        1.0,
        1.0
      ],
      "min": [
        -1.0,
        -1.0,
        -1.0
      ],
      "type": "VEC3"
    },
    {
      "bufferView": 3,
      "byteOffset": 2688,
      "componentType": 5126,
      "count": 48,
      "max": [
        6.867076990602072e-06,
        1.0,
        0.0,
        1.0
      ],
      "min": [
        -4.052371878060512e-06,
        -1.0,
        -1.0,
        1.0
      ],
      "type": "VEC4"
    },
    {
      "bufferView": 1,
      "byteOffset": 1344,
      "componentType": 5126,
      "count": 48,
      "max": [
        0.9448903203010559,
        0.920583963394165
      ],
      "min": [
        0.3093968331813812,
        0.49326232075691223
      ],
      "type": "VEC2"
    },
    {
      "bufferView": 0,
      "byteOffset": 1584,
      "componentType": 5125,
      "count": 72,
      "type": "SCALAR"
    },
    {
      "bufferView": 2,
      "byteOffset": 5184,
      "componentType": 5126,
      "count": 40,
      "max": [
        0.11909131705760956,
        1.4896537065505981,
        1.099306583404541
      ],
      "min": [
        -0.11909139156341553,
        -0.04190821200609207,
        -1.1077781915664673
      ],
      "type": "VEC3"
    },
    {
      "bufferView": 2,
      "byteOffset": 5664,
      "componentType": 5126,
      "count": 40,
      "max": [
        0.9999983310699463,
        1.0,
        0.007770320866256952
      ],
      "min": [
        -0.9999698996543884,
        -1.0,
        -0.9084880352020264
      ],
      "type": "VEC3"
    },
    {
      "bufferView": 3,
      "byteOffset": 3456,
      "componentType": 5126,
      "count": 40,
      "max": [
        0.912743091583252,
        1.0,
        0.41791102290153503,
        1.0
      ],
      "min": [
        -0.912743091583252,
        -1.0,
        -0.41791102290153503,
        1.0
      ],
      "type": "VEC4"
    },
    {
      "bufferView": 1,
      "byteOffset": 1728,
      "componentType": 5126,
      "count": 40,
      "max": [
        0.627745509147644,
        0.6628918051719666
      ],
      "min": [
        0.3093968629837036,
        0.009077242575585842
      ],
      "type": "VEC2"
    },
    {
      "bufferView": 0,
      "byteOffset": 1872,
      "componentType": 5125,
      "count": 60,
      "type": "SCALAR"
    },
    {
      "bufferView": 2,
      "byteOffset": 6144,
      "componentType": 5126,
      "count": 40,
      "max": [
        0.11909131705760956,
        0.041908252984285355,
        1.0982853174209595
      ],
      "min": [
        -0.11909139156341553,
        -1.4896535873413086,
        -1.1035066843032837
      ],
      "type": "VEC3"
    },
    {
      "bufferView": 2,
      "byteOffset": 6624,
      "componentType": 5126,
      "count": 40,
      "max": [
        0.9999598860740662,
        1.0,
        0.008960713632404804
      ],
      "min": [
        -0.999980092048645,
        -1.0,
        -0.908405601978302
      ],
      "type": "VEC3"
    },
    {
      "bufferView": 3,
      "byteOffset": 4096,
      "componentType": 5126,
      "count": 40,
      "max": [
        0.9125986695289612,
        1.0,
        0.4180898666381836,
        1.0
      ],
      "min": [
        -0.9125979542732239,
        -1.0,
        -0.418089896440506,
        1.0
      ],
      "type": "VEC4"
    },
    {
      "bufferView": 1,
      "byteOffset": 2048,
      "componentType": 5126,
      "count": 40,
      "max": [
        0.7917987108230591,
        0.8350309729576111
      ],
      "min": [
        0.009077250957489014,
        0.009077250957489014
      ],
      "type": "VEC2"
    },
    {
      "bufferView": 0,
      "byteOffset": 2112,
      "componentType": 5125,
      "count": 60,
      "type": "SCALAR"
    },
    {
      "bufferView": 2,
      "byteOffset": 7104,
      "componentType": 5126,
      "count": 296,
      "max": [
        0.7699031829833984,
        1.140860676765442,
        1.6013084650039673
      ],
      "min": [
        -0.03555650636553764,
        -0.46047425270080566,
        -0.032361581921577454
      ],
      "type": "VEC3"
    },
    {
      "bufferView": 2,
      "byteOffset": 10656,
      "componentType": 5126,
      "count": 296,
      "max": [
        1.0,
        0.9999014735221863,
        1.0
      ],
      "min": [
        -1.0,
        -0.999934196472168,
        -1.0
      ],
      "type": "VEC3"
    },
    {
      "bufferView": 3,
      "byteOffset": 4736,
      "componentType": 5126,
      "count": 296,
      "max": [
        0.9999345541000366,
        0.9999680519104004,
        1.0,
        1.0
      ],
      "min": [
        -0.9999342560768127,
        -0.9999678134918213,
        -1.0,
        1.0
      ],
      "type": "VEC4"
    },
    {
      "bufferView": 1,
      "byteOffset": 2368,
      "componentType": 5126,
      "count": 296,
      "max": [
        0.8710399866104126,
        0.8828657269477844
      ],
      "min": [
        0.17313037812709808,
        0.5231876373291016
      ],
      "type": "VEC2"
    },
    {
      "bufferView": 0,
      "byteOffset": 2352,
      "componentType": 5125,
      "count": 708,
      "type": "SCALAR"
    },
    {
      "bufferView": 2,
      "byteOffset": 14208,
      "componentType": 5126,
      "count": 164,
      "max": [
        0.4025220274925232,
        0.6966986060142517,
        0.6527199745178223
      ],
      "min": [
        -0.03481316938996315,
        -0.8789832592010498,
        -0.003829154185950756
      ],
      "type": "VEC3"
    },
    {
      "bufferView": 2,
      "byteOffset": 16176,
      "componentType": 5126,
      "count": 164,
      "max": [
        0.8631278872489929,
        0.9162382483482361,
        0.9906001091003418
      ],
      "min": [
        -0.8631278872489929,
        -0.9966542720794678,
        -0.9953821301460266
      ],
      "type": "VEC3"
    },
    {
      "bufferView": 3,
      "byteOffset": 9472,
      "componentType": 5126,
      "count": 164,
      "max": [
        0.9901279807090759,
        0.9961557984352112,
        0.9867614507675171,
        1.0
      ],
      "min": [
        -1.0,
        -0.9913700222969055,
        -0.9974290728569031,
        1.0
      ],
      "type": "VEC4"
    },
    {
      "bufferView": 1,
      "byteOffset": 4736,
      "componentType": 5126,
      "count": 164,
      "max": [
        0.9373955726623535,
        0.9823733568191528
      ],
      "min": [
        0.009077250957489014,
        0.8398870229721069
      ],
      "type": "VEC2"
    },
    {
      "bufferView": 0,
      "byteOffset": 5184,
      "componentType": 5125,
      "count": 168,
      "type": "SCALAR"
    },
    {
      "bufferView": 2,
      "byteOffset": 18144,
      "componentType": 5126,
      "count": 40,
      "max": [
        0.07765214890241623,
        0.02826807275414467,
        0.02826801687479019
      ],
      "min": [
        -0.009997621178627014,
        -1.1420035362243652,
        -0.02826814353466034
      ],
      "type": "VEC3"
    },
    {
      "bufferView": 2,
      "byteOffset": 18624,
      "componentType": 5126,
      "count": 40,
      "max": [
        1.0,
        1.0,
        0.9763914346694946
      ],
      "min": [
        -1.0,
        -1.0,
        -0.976391613483429
      ],
      "type": "VEC3"
    },
    {
      "bufferView": 3,
      "byteOffset": 12096,
      "componentType": 5126,
      "count": 40,
      "max": [
        1.0,
        1.0,
        5.13494933329639e-06,
        1.0
      ],
      "min": [
        -1.0,
        -1.0,
        -4.167495262663579e-06,
        1.0
      ],
      "type": "VEC4"
    },
    {
      "bufferView": 1,
      "byteOffset": 6048,
      "componentType": 5126,
      "count": 40,
      "max": [
        0.8733953833580017,
        0.9697157740592957
      ],
      "min": [
        0.5020145773887634,
        0.4729967713356018
      ],
      "type": "VEC2"
    },
    {
      "bufferView": 0,
      "byteOffset": 5856,
      "componentType": 5125,
      "count": 60,
      "type": "SCALAR"
    }
  ],
  "asset": {
    "extras": {
      "author": "Nudluria (https://sketchfab.com/nudluria)",
      "license": "CC-BY-4.0 (http://creativecommons.org/licenses/by/4.0/)",
      "source": "https://sketchfab.com/3d-models/witchs-chair-e18002149e2a479d9798ec4fe8833947",
      "title": "Witch's chair"
    },
    "generator": "Sketchfab-12.67.0",
    "version": "2.0"
  },
  "bufferViews": [
    {
      "buffer": 0,
      "byteLength": 6096,
      "name": "floatBufferViews",
      "target": 34963
    },
    {
      "buffer": 0,
      "byteLength": 6368,
      "byteOffset": 6096,
      "byteStride": 8,
      "name": "floatBufferViews",
      "target": 34962
    },
    {
      "buffer": 0,
      "byteLength": 19104,
      "byteOffset": 12464,
      "byteStride": 12,
      "name": "floatBufferViews",
      "target": 34962
    },
    {
      "buffer": 0,
      "byteLength": 12736,
      "byteOffset": 31568,
      "byteStride": 16,
      "name": "floatBufferViews",
      "target": 34962
    }
  ],
  "buffers": [
    {
      "byteLength": 44304,
      "uri": "scene.bin"
    }
  ],
  "images": [
    {
      "uri": "textures/Scene_-_Root_baseColor.png"
    },
    {
      "uri": "textures/Scene_-_Root_metallicRoughness.png"
    },
    {
      "uri": "textures/Scene_-_Root_normal.png"
    }
  ],
  "materials": [
    {
      "doubleSided": true,
      "name": "Scene_-_Root",
      "normalTexture": {
        "index": 2
      },
      "pbrMetallicRoughness": {
        "baseColorTexture": {
          "index": 0
        },
        "metallicRoughnessTexture": {
          "index": 1
        }
      }
    }
  ],
  "meshes": [
    {
      "name": "chair_01_low__0",
      "primitives": [
        {
          "attributes": {
            "NORMAL": 1,
            "POSITION": 0,
            "TANGENT": 2,
            "TEXCOORD_0": 3
          },
          "indices": 4,
          "material": 0,
          "mode": 4
        }
      ]
    },
    {
      "name": "chair_02_low__0",
      "primitives": [
        {
          "attributes": {
            "NORMAL": 6,
            "POSITION": 5,
            "TANGENT": 7,
            "TEXCOORD_0": 8
          },
          "indices": 9,
          "material": 0,
          "mode": 4
        }
      ]
    },
    {
      "name": "chair_03_low__0",
      "primitives": [
        {
          "attributes": {
            "NORMAL": 11,
            "POSITION": 10,
            "TANGENT": 12,
            "TEXCOORD_0": 13
          },
          "indices": 14,
          "material": 0,
          "mode": 4
        }
      ]
    },
    {
      "name": "chair_04_low__0",
      "primitives": [
        {
          "attributes": {
            "NORMAL": 16,
            "POSITION": 15,
            "TANGENT": 17,
            "TEXCOORD_0": 18
          },
          "indices": 19,
          "material": 0,
          "mode": 4
        }
      ]
    },
    {
      "name": "chair_05_low__0",
      "primitives": [
        {
          "attributes": {
            "NORMAL": 21,
            "POSITION": 20,
            "TANGENT": 22,
            "TEXCOORD_0": 23
          },
          "indices": 24,
          "material": 0,
          "mode": 4
        }
      ]
    },
    {
      "name": "chair_06_low__0",
      "primitives": [
        {
          "attributes": {
            "NORMAL": 26,
            "POSITION": 25,
            "TANGENT": 27,
            "TEXCOORD_0": 28
          },
          "indices": 29,
          "material": 0,
          "mode": 4
        }
      ]
    },
    {
      "name": "chair_07_low__0",
      "primitives": [
        {
          "attributes": {
            "NORMAL": 31,
            "POSITION": 30,
            "TANGENT": 32,
            "TEXCOORD_0": 33
          },
          "indices": 34,
          "material": 0,
          "mode": 4
        }
      ]
    }
  ],
  "nodes": [
    {
      "children": [
        1
      ],
      "matrix": [
        1.0,
        0.0,
        0.0,
        0.0,
        0.0,
        2.220446049250313e-16,
        -1.0,
        0.0,
        0.0,
        1.0,
        2.220446049250313e-16,
        0.0,
        0.0,
        0.0,
        0.0,
        1.0
      ],
      "name": "Sketchfab_model"
    },
    {
      "children": [
        2
      ],
      "matrix": [
        1.0,
        0.0,
        0.0,
        0.0,
        0.0,
        0.0,
        1.0,
        0.0,
        0.0,
        -1.0,
        0.0,
        0.0,
        0.0,
        0.0,
        0.0,
        1.0
      ],
      "name": "2277090aeb5741aab7c58ae0d5bdcf82.fbx"
    },
    {
      "children": [
        3,
        5,
        7,
        9,
        11,
        13,
        15
      ],
      "name": "RootNode"
    },
    {
      "children": [
        4
      ],
      "matrix": [
        100.0,
        0.0,
        0.0,
        0.0,
        -0.0,
        -1.629206793918314e-05,
        -99.99999999999868,
        0.0,
        0.0,
        99.99999999999868,
        -1.629206793918314e-05,
        0.0,
        -60.864585876464844,
        236.99009704589844,
        -1.0386164784204484e-29,
        1.0
      ],
      "name": "chair_01_low"
    },
    {
      "mesh": 0,
      "name": "chair_01_low__0"
    },
    {
      "children": [
        6
      ],
      "matrix": [
        100.0,
        0.0,
        0.0,
        0.0,
        0.0,
        -1.629206793918314e-05,
        -99.99999999999868,
        0.0,
        0.0,
        99.99999999999868,
        -1.629206793918314e-05,
        0.0,
        4.776869411094939e-14,
        196.12451171875,
        -71.46041870117188,
        1.0
      ],
      "name": "chair_02_low"
    },
    {
      "mesh": 1,
      "name": "chair_02_low__0"
    },
    {
      "children": [
        8
      ],
      "matrix": [
        90.63077986985355,
        42.26182367316997,
        6.172169972340491e-06,
        0.0,
        7.4412088352238115e-06,
        -1.353125766989649e-06,
        -99.99999999999972,
        0.0,
        -42.26182367316977,
        90.63077986985375,
        -4.371138984105016e-06,
        0.0,
        0.0,
        97.057861328125,
        70.40443420410156,
        1.0
      ],
      "name": "chair_03_low"
    },
    {
      "mesh": 2,
      "name": "chair_03_low__0"
    },
    {
      "children": [
        10
      ],
      "matrix": [
        90.630781129354,
        -42.261820972162226,
        -6.172169972340491e-06,
        0.0,
        -7.441208796366006e-06,
        -1.353125989034254e-06,
        -99.99999999999972,
        0.0,
        42.26182097216201,
        90.6307811293542,
        -4.371139006309477e-06,
        0.0,
        0.0,
        97.057861328125,
        -71.31121063232422,
        1.0
      ],
      "name": "chair_04_low"
    },
    {
      "mesh": 3,
      "name": "chair_04_low__0"
    },
    {
      "children": [
        12
      ],
      "matrix": [
        90.342934384479,
        42.87370064272158,
        4.315245399899581e-06,
        0.0,
        5.772588368424536e-06,
        -2.0989098459267552e-06,
        -99.9999999999998,
        0.0,
        -42.87370064272141,
        90.34293438447907,
        -4.371139006309477e-06,
        0.0,
        55.70889663696289,
        42.29502868652344,
        33.943321228027344,
        1.0
      ],
      "name": "chair_05_low"
    },
    {
      "mesh": 4,
      "name": "chair_05_low__0"
    },
    {
      "children": [
        14
      ],
      "matrix": [
        7.530378187681208e-06,
        -99.74288324516026,
        -7.166396719570756,
        0.0,
        -4.912186890582149e-06,
        7.16639671957039,
        -99.74288324516044,
        0.0,
        99.9999999999996,
        7.86304312772046e-06,
        -4.359900063199973e-06,
        0.0,
        -58.6556510925293,
        234.800537109375,
        -6.7415690422058105,
        1.0
      ],
      "name": "chair_06_low"
    },
    {
      "mesh": 5,
      "name": "chair_06_low__0"
    },
    {
      "children": [
        16
      ],
      "matrix": [
        100.0,
        0.0,
        0.0,
        0.0,
        0.0,
        -1.629206793918314e-05,
        -99.99999999999868,
        0.0,
        0.0,
        99.99999999999868,
        -1.629206793918314e-05,
        0.0,
        46.87632751464844,
        196.0831756591797,
        -55.76277542114258,
        1.0
      ],
      "name": "chair_07_low"
    },
    {
      "mesh": 6,
      "name": "chair_07_low__0"
    }
  ],
  "samplers": [
    {
      "magFilter": 9729,
      "minFilter": 9987,
      "wrapS": 10497,
      "wrapT": 10497
    }
  ],
  "scene": 0,
  "scenes": [
    {
      "name": "Sketchfab_Scene",
      "nodes": [
        0
      ]
    }
  ],
  "textures": [
    {
      "sampler": 0,
      "source": 0
    },
    {
      "sampler": 0,
      "source": 1
    },
    {
      "sampler": 0,
      "source": 2
    }
  ]
}
