{
  "accessors": [
    {
      "bufferView": 2,
      "componentType": 5126,
      "count": 46146,
      "max": [
        37.616268157958984,
        8.681629180908203,
        57.555599212646484
      ],
      "min": [
        -37.68110275268555,
        -8.496989250183105,
        -2.126615047454834
      ],
      "type": "VEC3"
    },
    {
      "bufferView": 2,
      "byteOffset": 553752,
      "componentType": 5126,
      "count": 46146,
      "max": [
        0.9999756217002869,
        0.9999988675117493,
        0.9999859929084778
      ],
      "min": [
        -0.9999852180480957,
        -1.0,
        -0.9999995231628418
      ],
      "type": "VEC3"
    },
    {
      "bufferView": 3,
      "componentType": 5126,
      "count": 46146,
      "max": [
        0.9999989867210388,
        0.9999996423721313,
        0.9990049600601196,
        1.0
      ],
      "min": [
        -0.9811114072799683,
        -0.9999996423721313,
        -0.9477549195289612,
        1.0
      ],
      "type": "VEC4"
    },
    {
      "bufferView": 1,
      "componentType": 5126,
      "count": 46146,
      "max": [
        0.9915080070495605,
        0.9980080127716064
      ],
      "min": [
        0.016733000054955482,
        0.0019920000340789557
      ],
      "type": "VEC2"
    },
    {
      "bufferView": 0,
      "componentType": 5125,
      "count": 46146,
      "type": "SCALAR"
    }
  ],
  "asset": {
    "extras": {
      "author": "Hvenix (https://sketchfab.com/Hvenix)",
      "license": "CC-BY-4.0 (http://creativecommons.org/licenses/by/4.0/)",
      "source": "https://sketchfab.com/3d-models/stone-arch-a54dc19752cf4908aaa32ebf46cee13d",
      "title": "Stone Arch"
    },
    "generator": "Sketchfab-13.36.0",
    "version": "2.0"
  },
  "bufferViews": [
    {
      "buffer": 0,
      "byteLength": 184584,
      "name": "floatBufferViews",
      "target": 34963
    },
    {
      "buffer": 0,
      "byteLength": 369168,
      "byteOffset": 184584,
      "byteStride": 8,
      "name": "floatBufferViews",
      "target": 34962
    },
    {
      "buffer": 0,
      "byteLength": 1107504,
      "byteOffset": 553752,
      "byteStride": 12,
      "name": "floatBufferViews",
      "target": 34962
    },
    {
      "buffer": 0,
      "byteLength": 738336,
      "byteOffset": 1661256,
      "byteStride": 16,
      "name": "floatBufferViews",
      "target": 34962
    }
  ],
  "buffers": [
    {
      "byteLength": 2399592,
      "uri": "scene.bin"
    }
  ],
  "images": [
    {
      "uri": "textures/initialShadingGroup_baseColor.png"
    },
    {
      "uri": "textures/initialShadingGroup_metallicRoughness.png"
    },
    {
      "uri": "textures/initialShadingGroup_normal.png"
    }
  ],
  "materials": [
    {
      "doubleSided": true,
      "name": "initialShadingGroup",
      "normalTexture": {
        "index": 2
      },
      "occlusionTexture": {
        "index": 1
      },
      "pbrMetallicRoughness": {
        "baseColorTexture": {
          "index": 0
        },
        "metallicFactor": 0.03504772585973595,
        "metallicRoughnessTexture": {
          "index": 1
        },
        "roughnessFactor": 0.9615267398910168
      }
    }
  ],
  "meshes": [
    {
      "name": "Object_0",
      "primitives": [
        {
          "attributes": {
            "NORMAL": 1,
            "POSITION": 0,
            "TANGENT": 2,
            "TEXCOORD_0": 3
          },
          "indices": 4,
          "material": 0,
          "mode": 4
        }
      ]
    }
  ],
  "nodes": [
    {
      "children": [
        1
      ],
      "matrix": [
        1.0,
        0.0,
        0.0,
        0.0,
        0.0,
        2.220446049250313e-16,
        -1.0,
        0.0,
        0.0,
        1.0,
        2.220446049250313e-16,
        0.0,
        0.0,
        0.0,
        0.0,
        1.0
      ],
      "name": "Sketchfab_model"
    },
    {
      "children": [
        2
      ],
      "name": "Arka_Low.obj.cleaner.materialmerger.gles"
    },
    {
      "mesh": 0,
      "name": "Object_2"
    }
  ],
  "samplers": [
    {
      "magFilter": 9729,
      "minFilter": 9987,
      "wrapS": 10497,
      "wrapT": 10497
    }
  ],
  "scene": 0,
  "scenes": [
    {
      "name": "Sketchfab_Scene",
      "nodes": [
        0
      ]
    }
  ],
  "textures": [
    {
      "sampler": 0,
      "source": 0
    },
    {
      "sampler": 0,
      "source": 1
    },
    {
      "sampler": 0,
      "source": 2
    }
  ]
}
