{
	"asset":{
		"generator":"Khronos glTF Blender I/O v4.1.63",
		"version":"2.0"
	},
	"extensionsUsed":[
		"KHR_materials_specular",
		"KHR_materials_ior"
	],
	"scene":0,
	"scenes":[
		{
			"name":"Scene",
			"nodes":[
				28
			]
		}
	],
	"nodes":[
		{
			"name":"Bone.015",
			"rotation":[
				0.011141284368932247,
				-0.0049285911954939365,
				0.44658878445625305,
				0.8946564197540283
			],
			"scale":[
				0.9999999403953552,
				0.9999999403953552,
				1
			],
			"translation":[
				-5.364418029785156e-07,
				1.316650152206421,
				1.7881393432617188e-07
			]
		},
		{
			"children":[
				0
			],
			"name":"Bone.014",
			"rotation":[
				0.01149878092110157,
				-0.005642070434987545,
				0.4752419888973236,
				0.8797619342803955
			],
			"scale":[
				0.9999999403953552,
				1,
				1
			],
			"translation":[
				2.384185791015625e-07,
				2.2723639011383057,
				8.940696716308594e-08
			]
		},
		{
			"children":[
				1
			],
			"name":"Bone.013",
			"rotation":[
				0.09703075885772705,
				-0.19537940621376038,
				0.3507916033267975,
				0.9106904864311218
			],
			"scale":[
				1.0000001192092896,
				1,
				1.0000001192092896
			],
			"translation":[
				1.4901161193847656e-07,
				0.8820158243179321,
				-3.6600977182388306e-07
			]
		},
		{
			"children":[
				2
			],
			"name":"Bone.009",
			"rotation":[
				-0.2218724936246872,
				0.05319661647081375,
				0.18550850450992584,
				0.9557873010635376
			],
			"scale":[
				0.9999998211860657,
				0.9999997019767761,
				0.9999997615814209
			],
			"translation":[
				0.22985681891441345,
				3.295905828475952,
				-1.558422565460205
			]
		},
		{
			"name":"Bone.008",
			"rotation":[
				-0.06802090257406235,
				-0.05083860084414482,
				0.4737235903739929,
				0.8765697479248047
			],
			"scale":[
				0.9999998807907104,
				1,
				0.9999998807907104
			],
			"translation":[
				0.06473968923091888,
				4.23354434967041,
				-1.9290196895599365
			]
		},
		{
			"name":"Bone.018",
			"rotation":[
				-0.0062440852634608746,
				0.003906301688402891,
				0.5303506851196289,
				0.8477463722229004
			],
			"scale":[
				0.9999999403953552,
				1,
				1
			],
			"translation":[
				-7.450580596923828e-07,
				1.7949577569961548,
				-1.4901161193847656e-08
			]
		},
		{
			"children":[
				5
			],
			"name":"Bone.017",
			"rotation":[
				0.012480040080845356,
				-0.007246102672070265,
				0.557981550693512,
				0.8297278881072998
			],
			"scale":[
				0.9999998807907104,
				0.9999998807907104,
				0.9999999403953552
			],
			"translation":[
				5.010515451431274e-07,
				2.838824510574341,
				4.470348358154297e-08
			]
		},
		{
			"children":[
				6
			],
			"name":"Bone.016",
			"rotation":[
				0.027891388162970543,
				-0.07213684916496277,
				0.4035363793373108,
				0.9116889834403992
			],
			"scale":[
				1.0000001192092896,
				1.0000001192092896,
				1
			],
			"translation":[
				-6.332993507385254e-08,
				0.8362473249435425,
				1.3923272490501404e-07
			]
		},
		{
			"children":[
				7
			],
			"name":"Bone.010",
			"rotation":[
				-0.016602972522377968,
				-0.01770208403468132,
				0.20263920724391937,
				0.9789526462554932
			],
			"scale":[
				0.9999997615814209,
				0.9999996423721313,
				0.9999995827674866
			],
			"translation":[
				0.10510550439357758,
				3.391099452972412,
				-0.5065135955810547
			]
		},
		{
			"name":"Bone.007",
			"rotation":[
				0.013202342204749584,
				-0.07510466128587723,
				0.48676422238349915,
				0.8701986074447632
			],
			"scale":[
				0.9999999403953552,
				1,
				0.9999998211860657
			],
			"translation":[
				-0.10195861011743546,
				4.400593280792236,
				-0.5705359578132629
			]
		},
		{
			"name":"Bone.021",
			"rotation":[
				3.3422800638227557e-10,
				-1.6711418707182624e-11,
				0.4916771948337555,
				0.8707775473594666
			],
			"scale":[
				1.0000001192092896,
				1.000000238418579,
				1.000000238418579
			],
			"translation":[
				-1.1094380170106888e-07,
				1.5129903554916382,
				2.421438694000244e-08
			]
		},
		{
			"children":[
				10
			],
			"name":"Bone.020",
			"rotation":[
				0.011609982699155807,
				-0.00655547808855772,
				0.49163350462913513,
				0.8707001209259033
			],
			"scale":[
				1,
				1,
				1.0000001192092896
			],
			"translation":[
				2.093147486448288e-07,
				2.5849545001983643,
				3.725290298461914e-08
			]
		},
		{
			"children":[
				11
			],
			"name":"Bone.019",
			"rotation":[
				-0.012037402018904686,
				-0.0005448818556033075,
				0.40775662660598755,
				0.9130111336708069
			],
			"scale":[
				0.9999998807907104,
				1.0000001192092896,
				1.000000238418579
			],
			"translation":[
				1.9581057131290436e-07,
				0.7560274004936218,
				-5.349284037947655e-08
			]
		},
		{
			"children":[
				12
			],
			"name":"Bone.011",
			"rotation":[
				0.08832427114248276,
				-0.026898855343461037,
				0.18243694305419922,
				0.9788728952407837
			],
			"scale":[
				0.9999998211860657,
				0.9999999403953552,
				0.9999998211860657
			],
			"translation":[
				0.23890390992164612,
				3.182342052459717,
				0.4564160406589508
			]
		},
		{
			"name":"Bone.006",
			"rotation":[
				0.06826885044574738,
				-0.05564641207456589,
				0.4825671315193176,
				0.8714194297790527
			],
			"scale":[
				0.9999999403953552,
				0.9999999403953552,
				0.9999998807907104
			],
			"translation":[
				0.021913103759288788,
				4.144819736480713,
				0.6042401790618896
			]
		},
		{
			"name":"Bone.024",
			"rotation":[
				0.0015859907725825906,
				0.07236349582672119,
				0.43156304955482483,
				0.8991742730140686
			],
			"scale":[
				1.0000003576278687,
				0.9999998807907104,
				0.9999998211860657
			],
			"translation":[
				-3.46451997756958e-07,
				0.9920697212219238,
				2.0489096641540527e-07
			]
		},
		{
			"children":[
				15
			],
			"name":"Bone.023",
			"rotation":[
				0.12131910771131516,
				0.07071967422962189,
				0.3871767222881317,
				0.9112489223480225
			],
			"scale":[
				0.9999999403953552,
				0.9999998211860657,
				1.0000001192092896
			],
			"translation":[
				-6.109476089477539e-07,
				1.7325153350830078,
				1.043081283569336e-07
			]
		},
		{
			"children":[
				16
			],
			"name":"Bone.022",
			"rotation":[
				-0.0688914954662323,
				-0.08794137835502625,
				0.4014672338962555,
				0.9090348482131958
			],
			"scale":[
				0.9999999403953552,
				0.9999997615814209,
				0.9999997615814209
			],
			"translation":[
				-1.1920928955078125e-07,
				0.7935329079627991,
				-5.774199962615967e-08
			]
		},
		{
			"children":[
				17
			],
			"name":"Bone.012",
			"rotation":[
				0.15280574560165405,
				0.013187875039875507,
				0.16868051886558533,
				0.9736648797988892
			],
			"scale":[
				1.000000238418579,
				1.000000238418579,
				1.0000003576278687
			],
			"translation":[
				0.03970400616526604,
				2.991939067840576,
				1.2290210723876953
			]
		},
		{
			"name":"Bone.005",
			"rotation":[
				0.10676414519548416,
				-0.11423889547586441,
				0.40761956572532654,
				0.899665117263794
			],
			"scale":[
				0.9999998211860657,
				0.9999998211860657,
				0.9999998807907104
			],
			"translation":[
				-0.016444263979792595,
				3.880011796951294,
				1.5784695148468018
			]
		},
		{
			"name":"Bone.025",
			"rotation":[
				-0.5549969673156738,
				0.3084976375102997,
				0.29208725690841675,
				0.715187132358551
			],
			"scale":[
				0.9999999403953552,
				0.9999999403953552,
				1
			],
			"translation":[
				0.17412897944450378,
				1.300736665725708,
				-2.337437152862549
			]
		},
		{
			"name":"Bone.004",
			"rotation":[
				-0.033258043229579926,
				0.18197886645793915,
				0.45103615522384644,
				0.8731231093406677
			],
			"translation":[
				2.4586915969848633e-07,
				1.5847291946411133,
				-3.5762786865234375e-07
			]
		},
		{
			"children":[
				21
			],
			"name":"Bone.003",
			"rotation":[
				0.21930332481861115,
				0.16144469380378723,
				0.31007835268974304,
				0.9108749032020569
			],
			"scale":[
				1.0000001192092896,
				1,
				0.9999999403953552
			],
			"translation":[
				1.043081283569336e-07,
				2.235307216644287,
				4.5355409383773804e-07
			]
		},
		{
			"children":[
				22
			],
			"name":"Bone.002",
			"rotation":[
				-0.5594496726989746,
				0.30784568190574646,
				0.2877543270587921,
				0.7137538194656372
			],
			"scale":[
				1.0000001192092896,
				1.000000238418579,
				1
			],
			"translation":[
				-0.041982829570770264,
				0.8894718289375305,
				-1.6039530038833618
			]
		},
		{
			"children":[
				3,
				4,
				8,
				9,
				13,
				14,
				18,
				19,
				20,
				23
			],
			"name":"Bone.001",
			"rotation":[
				0.17427101731300354,
				0.0048334612511098385,
				0.029232293367385864,
				0.9842519164085388
			],
			"scale":[
				1,
				0.9999999403953552,
				0.9999998807907104
			],
			"translation":[
				-3.725290298461914e-09,
				1.9754372835159302,
				2.1880259737372398e-07
			]
		},
		{
			"name":"Bone.026",
			"rotation":[
				0.17616930603981018,
				0.0002632456598803401,
				0.02116277441382408,
				0.9841323494911194
			],
			"scale":[
				1.0000001192092896,
				1.0000001192092896,
				1.0000001192092896
			],
			"translation":[
				0.0006927615031599998,
				1.9745591878890991,
				0.0026384899392724037
			]
		},
		{
			"children":[
				24,
				25
			],
			"name":"Bone",
			"rotation":[
				-0.2637329399585724,
				-0.0010659078834578395,
				-0.019482942298054695,
				0.9643983840942383
			],
			"scale":[
				0.9999999403953552,
				0.9999999403953552,
				1
			],
			"translation":[
				0,
				0,
				0.30369246006011963
			]
		},
		{
			"mesh":0,
			"name":"\u041e\u043a\u0440\u0443\u0436\u043d\u043e\u0441\u0442\u044c",
			"skin":0
		},
		{
			"children":[
				27,
				26
			],
			"name":"\u0421\u043a\u0435\u043b\u0435\u0442",
			"rotation":[
				1,
				0,
				0,
				0
			],
			"scale":[
				-1,
				-1,
				-1
			],
			"translation":[
				0.01771235652267933,
				0.8856145143508911,
				1.3773272037506104
			]
		}
	],
	"materials":[
		{
			"doubleSided":true,
			"extensions":{
				"KHR_materials_specular":{
					"specularColorFactor":[
						2.0,
						2.0,
						2.0
					]
				},
				"KHR_materials_ior":{
					"ior":1.4500000476837158
				}
			},
			"name":"\u041c\u0430\u0442\u0435\u0440\u0438\u0430\u043b.001",
			"pbrMetallicRoughness":{
				"baseColorFactor":[
					0.5557994842529297,
					0.5557994842529297,
					0.5557994842529297,
					1
				],
				"metallicFactor":0
			}
		}
	],
	"meshes":[
		{
			"name":"\u041e\u043a\u0440\u0443\u0436\u043d\u043e\u0441\u0442\u044c",
			"primitives":[
				{
					"attributes":{
						"POSITION":0,
						"NORMAL":1,
						"TEXCOORD_0":2,
						"JOINTS_0":3,
						"WEIGHTS_0":4
					},
					"indices":5,
					"material":0
				}
			]
		}
	],
	"skins":[
		{
			"inverseBindMatrices":6,
			"joints":[
				26,
				24,
				3,
				2,
				1,
				0,
				4,
				8,
				7,
				6,
				5,
				9,
				13,
				12,
				11,
				10,
				14,
				18,
				17,
				16,
				15,
				19,
				20,
				23,
				22,
				21,
				25
			],
			"name":"\u0421\u043a\u0435\u043b\u0435\u0442"
		}
	],
	"accessors":[
		{
			"bufferView":0,
			"componentType":5126,
			"count":1195,
			"max":[
				1.3790454864501953,
				12.47805118560791,
				3.9450392723083496
			],
			"min":[
				-1.0647350549697876,
				0.5692911148071289,
				-5.407398700714111
			],
			"type":"VEC3"
		},
		{
			"bufferView":1,
			"componentType":5126,
			"count":1195,
			"type":"VEC3"
		},
		{
			"bufferView":2,
			"componentType":5126,
			"count":1195,
			"type":"VEC2"
		},
		{
			"bufferView":3,
			"componentType":5121,
			"count":1195,
			"type":"VEC4"
		},
		{
			"bufferView":4,
			"componentType":5126,
			"count":1195,
			"type":"VEC4"
		},
		{
			"bufferView":5,
			"componentType":5123,
			"count":6144,
			"type":"SCALAR"
		},
		{
			"bufferView":6,
			"componentType":5126,
			"count":27,
			"type":"MAT4"
		}
	],
	"bufferViews":[
		{
			"buffer":0,
			"byteLength":14340,
			"byteOffset":0,
			"target":34962
		},
		{
			"buffer":0,
			"byteLength":14340,
			"byteOffset":14340,
			"target":34962
		},
		{
			"buffer":0,
			"byteLength":9560,
			"byteOffset":28680,
			"target":34962
		},
		{
			"buffer":0,
			"byteLength":4780,
			"byteOffset":38240,
			"target":34962
		},
		{
			"buffer":0,
			"byteLength":19120,
			"byteOffset":43020,
			"target":34962
		},
		{
			"buffer":0,
			"byteLength":12288,
			"byteOffset":62140,
			"target":34963
		},
		{
			"buffer":0,
			"byteLength":1728,
			"byteOffset":74428
		}
	],
	"buffers":[
		{
			"byteLength":76156,
			"uri":"Arm.bin"
		}
	]
}
