{
	"asset":{
		"generator":"Khronos glTF Blender I/O v4.1.63",
		"version":"2.0"
	},
	"extensionsUsed":[
		"KHR_materials_specular"
	],
	"scene":0,
	"scenes":[
		{
			"name":"Scene",
			"nodes":[
				0
			]
		}
	],
	"nodes":[
		{
			"mesh":0,
			"name":"Boulder02",
			"rotation":[
				0.70710688829422,
				0,
				0,
				0.7071066498756409
			]
		}
	],
	"materials":[
		{
			"doubleSided":true,
			"extensions":{
				"KHR_materials_specular":{
					"specularTexture":{
						"index":0
					},
					"specularColorTexture":{
						"index":1
					}
				}
			},
			"name":"AssortedBoulders",
			"normalTexture":{
				"index":2
			},
			"pbrMetallicRoughness":{
				"baseColorTexture":{
					"index":3
				},
				"metallicFactor":0,
				"roughnessFactor":0.5
			}
		}
	],
	"meshes":[
		{
			"name":"Boulder02",
			"primitives":[
				{
					"attributes":{
						"POSITION":0,
						"NORMAL":1,
						"TEXCOORD_0":2
					},
					"indices":3,
					"material":0
				}
			]
		}
	],
	"textures":[
		{
			"sampler":0,
			"source":0
		},
		{
			"sampler":0,
			"source":0
		},
		{
			"sampler":0,
			"source":1
		},
		{
			"sampler":0,
			"source":2
		}
	],
	"images":[
		{
			"mimeType":"image/png",
			"name":"AssortedBoulders_Base_Specular",
			"uri":"AssortedBoulders_Base_Specular.png"
		},
		{
			"mimeType":"image/png",
			"name":"AssortedBoulders_Base_Normal",
			"uri":"AssortedBoulders_Base_Normal.png"
		},
		{
			"mimeType":"image/png",
			"name":"AssortedBoulders_Base_Diffuse",
			"uri":"AssortedBoulders_Base_Diffuse.png"
		}
	],
	"accessors":[
		{
			"bufferView":0,
			"componentType":5126,
			"count":1406,
			"max":[
				7.045690059661865,
				-31.476999282836914,
				0
			],
			"min":[
				-5.434309959411621,
				-42.57099914550781,
				-27.44499969482422
			],
			"type":"VEC3"
		},
		{
			"bufferView":1,
			"componentType":5126,
			"count":1406,
			"type":"VEC3"
		},
		{
			"bufferView":2,
			"componentType":5126,
			"count":1406,
			"type":"VEC2"
		},
		{
			"bufferView":3,
			"componentType":5123,
			"count":6450,
			"type":"SCALAR"
		}
	],
	"bufferViews":[
		{
			"buffer":0,
			"byteLength":16872,
			"byteOffset":0,
			"target":34962
		},
		{
			"buffer":0,
			"byteLength":16872,
			"byteOffset":16872,
			"target":34962
		},
		{
			"buffer":0,
			"byteLength":11248,
			"byteOffset":33744,
			"target":34962
		},
		{
			"buffer":0,
			"byteLength":12900,
			"byteOffset":44992,
			"target":34963
		}
	],
	"samplers":[
		{
			"magFilter":9729,
			"minFilter":9987
		}
	],
	"buffers":[
		{
			"byteLength":57892,
			"uri":"rock2.bin"
		}
	]
}
