{
	"asset":{
		"generator":"Khronos glTF Blender I/O v4.1.63",
		"version":"2.0"
	},
	"extensionsUsed":[
		"KHR_materials_specular",
		"KHR_materials_ior"
	],
	"scene":0,
	"scenes":[
		{
			"name":"Scene",
			"nodes":[
				0
			]
		}
	],
	"nodes":[
		{
			"mesh":0,
			"name":"Barrel_Wagon_1",
			"translation":[
				-8.73836898803711,
				1.3676655292510986,
				-10.731693267822266
			]
		}
	],
	"materials":[
		{
			"doubleSided":true,
			"name":"Cart_Poles.001",
			"normalTexture":{
				"index":0
			},
			"pbrMetallicRoughness":{
				"baseColorTexture":{
					"index":1
				},
				"metallicRoughnessTexture":{
					"index":2
				}
			}
		},
		{
			"doubleSided":true,
			"name":"Cart_Main.001",
			"normalTexture":{
				"index":3
			},
			"pbrMetallicRoughness":{
				"baseColorTexture":{
					"index":4
				},
				"metallicRoughnessTexture":{
					"index":5
				}
			}
		},
		{
			"doubleSided":true,
			"name":"Cart_Wheels_001",
			"normalTexture":{
				"index":6
			},
			"pbrMetallicRoughness":{
				"baseColorTexture":{
					"index":7
				},
				"metallicRoughnessTexture":{
					"index":8
				}
			}
		},
		{
			"doubleSided":true,
			"extensions":{
				"KHR_materials_specular":{
					"specularFactor":0.5666666626930237
				},
				"KHR_materials_ior":{
					"ior":1.4500000476837158
				}
			},
			"name":"Cart_Handles_001",
			"normalTexture":{
				"index":9
			},
			"pbrMetallicRoughness":{
				"baseColorTexture":{
					"index":10
				},
				"metallicRoughnessTexture":{
					"index":11
				}
			}
		},
		{
			"doubleSided":true,
			"name":"Wheel_Shaft_001",
			"normalTexture":{
				"index":12
			},
			"pbrMetallicRoughness":{
				"baseColorTexture":{
					"index":13
				},
				"metallicRoughnessTexture":{
					"index":14
				}
			}
		},
		{
			"doubleSided":true,
			"name":"Cart_Side_Panel",
			"normalTexture":{
				"index":15
			},
			"pbrMetallicRoughness":{
				"baseColorTexture":{
					"index":16
				},
				"metallicRoughnessTexture":{
					"index":17
				}
			}
		},
		{
			"doubleSided":true,
			"name":"Wooden_Barrel_9",
			"normalTexture":{
				"index":18
			},
			"pbrMetallicRoughness":{
				"baseColorTexture":{
					"index":19
				},
				"metallicRoughnessTexture":{
					"index":20
				}
			}
		},
		{
			"doubleSided":true,
			"name":"Metal_Bands",
			"normalTexture":{
				"index":21
			},
			"pbrMetallicRoughness":{
				"baseColorTexture":{
					"index":22
				},
				"metallicRoughnessTexture":{
					"index":23
				}
			}
		},
		{
			"doubleSided":true,
			"name":"Wooden_Barrel_10",
			"normalTexture":{
				"index":24
			},
			"pbrMetallicRoughness":{
				"baseColorTexture":{
					"index":25
				},
				"metallicRoughnessTexture":{
					"index":26
				}
			}
		},
		{
			"doubleSided":true,
			"name":"Wooden_Barrel_11",
			"normalTexture":{
				"index":27
			},
			"pbrMetallicRoughness":{
				"baseColorTexture":{
					"index":28
				},
				"metallicRoughnessTexture":{
					"index":29
				}
			}
		},
		{
			"doubleSided":true,
			"name":"Wooden_Barrel_12.002",
			"normalTexture":{
				"index":30
			},
			"pbrMetallicRoughness":{
				"baseColorTexture":{
					"index":31
				},
				"metallicRoughnessTexture":{
					"index":32
				}
			}
		}
	],
	"meshes":[
		{
			"name":"Plane.020",
			"primitives":[
				{
					"attributes":{
						"POSITION":0,
						"NORMAL":1,
						"TEXCOORD_0":2
					},
					"indices":3,
					"material":0
				},
				{
					"attributes":{
						"POSITION":4,
						"NORMAL":5,
						"TEXCOORD_0":6
					},
					"indices":7,
					"material":1
				},
				{
					"attributes":{
						"POSITION":8,
						"NORMAL":9,
						"TEXCOORD_0":10
					},
					"indices":11,
					"material":2
				},
				{
					"attributes":{
						"POSITION":12,
						"NORMAL":13,
						"TEXCOORD_0":14
					},
					"indices":15,
					"material":3
				},
				{
					"attributes":{
						"POSITION":16,
						"NORMAL":17,
						"TEXCOORD_0":18
					},
					"indices":19,
					"material":4
				},
				{
					"attributes":{
						"POSITION":20,
						"NORMAL":21,
						"TEXCOORD_0":22
					},
					"indices":23,
					"material":5
				},
				{
					"attributes":{
						"POSITION":24,
						"NORMAL":25,
						"TEXCOORD_0":26
					},
					"indices":27,
					"material":6
				},
				{
					"attributes":{
						"POSITION":28,
						"NORMAL":29,
						"TEXCOORD_0":30
					},
					"indices":31,
					"material":7
				},
				{
					"attributes":{
						"POSITION":32,
						"NORMAL":33,
						"TEXCOORD_0":34
					},
					"indices":35,
					"material":8
				},
				{
					"attributes":{
						"POSITION":36,
						"NORMAL":37,
						"TEXCOORD_0":38
					},
					"indices":39,
					"material":9
				},
				{
					"attributes":{
						"POSITION":40,
						"NORMAL":41,
						"TEXCOORD_0":42
					},
					"indices":35,
					"material":10
				}
			]
		}
	],
	"textures":[
		{
			"sampler":0,
			"source":0
		},
		{
			"sampler":0,
			"source":1
		},
		{
			"sampler":0,
			"source":2
		},
		{
			"sampler":0,
			"source":3
		},
		{
			"sampler":0,
			"source":4
		},
		{
			"sampler":0,
			"source":5
		},
		{
			"sampler":0,
			"source":6
		},
		{
			"sampler":0,
			"source":7
		},
		{
			"sampler":0,
			"source":8
		},
		{
			"sampler":0,
			"source":9
		},
		{
			"sampler":0,
			"source":10
		},
		{
			"sampler":0,
			"source":11
		},
		{
			"sampler":0,
			"source":12
		},
		{
			"sampler":0,
			"source":13
		},
		{
			"sampler":0,
			"source":14
		},
		{
			"sampler":0,
			"source":15
		},
		{
			"sampler":0,
			"source":16
		},
		{
			"sampler":0,
			"source":17
		},
		{
			"sampler":0,
			"source":18
		},
		{
			"sampler":0,
			"source":19
		},
		{
			"sampler":0,
			"source":20
		},
		{
			"sampler":0,
			"source":21
		},
		{
			"sampler":0,
			"source":22
		},
		{
			"sampler":0,
			"source":23
		},
		{
			"sampler":0,
			"source":18
		},
		{
			"sampler":0,
			"source":19
		},
		{
			"sampler":0,
			"source":20
		},
		{
			"sampler":0,
			"source":18
		},
		{
			"sampler":0,
			"source":19
		},
		{
			"sampler":0,
			"source":20
		},
		{
			"sampler":0,
			"source":18
		},
		{
			"sampler":0,
			"source":19
		},
		{
			"sampler":0,
			"source":20
		}
	],
	"images":[
		{
			"mimeType":"image/png",
			"name":"Cart_Poles.001_Normal_DirectX",
			"uri":"Cart_Poles_001_Normal_DirectX.png"
		},
		{
			"mimeType":"image/png",
			"name":"Cart_Poles.001_Base_Color",
			"uri":"Cart_Poles_001_Base_Color.png"
		},
		{
			"mimeType":"image/png",
			"name":"Cart_Poles.001_Metallic-Cart_Poles.001_Roughness",
			"uri":"Cart_Poles_001_Metallic-Cart_Poles_001_Roughness.png"
		},
		{
			"mimeType":"image/png",
			"name":"Cart_Main.001_Normal_DirectX",
			"uri":"Cart_Main_001_Normal_DirectX.png"
		},
		{
			"mimeType":"image/png",
			"name":"Cart_Main.001_Base_Color",
			"uri":"Cart_Main_001_Base_Color.png"
		},
		{
			"mimeType":"image/png",
			"name":"Cart_Main.001_Metallic-Cart_Main.001_Roughness",
			"uri":"Cart_Main_001_Metallic-Cart_Main_001_Roughness.png"
		},
		{
			"mimeType":"image/png",
			"name":"Cart_Wheels.001_Normal_DirectX",
			"uri":"Cart_Wheels_001_Normal_DirectX.png"
		},
		{
			"mimeType":"image/png",
			"name":"Cart_Wheels.001_Base_Color",
			"uri":"Cart_Wheels_001_Base_Color.png"
		},
		{
			"mimeType":"image/png",
			"name":"Wheel_Shaft.001_Metallic-Cart_Wheels.001_Roughness",
			"uri":"Wheel_Shaft_001_Metallic-Cart_Wheels_001_Roughness.png"
		},
		{
			"mimeType":"image/png",
			"name":"Cart_Handles_Normal_DirectX",
			"uri":"Cart_Handles_Normal_DirectX.png"
		},
		{
			"mimeType":"image/png",
			"name":"Cart_Handles_Base_Color",
			"uri":"Cart_Handles_Base_Color.png"
		},
		{
			"mimeType":"image/png",
			"name":"Cart_Handles_Metallic-Cart_Handles_Roughness",
			"uri":"Cart_Handles_Metallic-Cart_Handles_Roughness.png"
		},
		{
			"mimeType":"image/png",
			"name":"Wheel_Shaft.001_Normal_DirectX",
			"uri":"Wheel_Shaft_001_Normal_DirectX.png"
		},
		{
			"mimeType":"image/png",
			"name":"Wheel_Shaft.001_Base_Color",
			"uri":"Wheel_Shaft_001_Base_Color.png"
		},
		{
			"mimeType":"image/png",
			"name":"Wheel_Shaft.001_Metallic-Wheel_Shaft.001_Roughness",
			"uri":"Wheel_Shaft_001_Metallic-Wheel_Shaft_001_Roughness.png"
		},
		{
			"mimeType":"image/png",
			"name":"Cart_Side_Panel_Normal_DirectX",
			"uri":"Cart_Side_Panel_Normal_DirectX.png"
		},
		{
			"mimeType":"image/png",
			"name":"Cart_Side_Panel_Base_Color",
			"uri":"Cart_Side_Panel_Base_Color.png"
		},
		{
			"mimeType":"image/png",
			"name":"Cart_Side_Panel_Metallic-Cart_Side_Panel_Roughness",
			"uri":"Cart_Side_Panel_Metallic-Cart_Side_Panel_Roughness.png"
		},
		{
			"mimeType":"image/png",
			"name":"Wooden_Barrel_Normal_DirectX",
			"uri":"Wooden_Barrel_Normal_DirectX.png"
		},
		{
			"mimeType":"image/png",
			"name":"Wooden_Barrel_Base_Color",
			"uri":"Wooden_Barrel_Base_Color.png"
		},
		{
			"mimeType":"image/png",
			"name":"Wooden_Barrel_Metallic-Wooden_Barrel_Roughness",
			"uri":"Wooden_Barrel_Metallic-Wooden_Barrel_Roughness.png"
		},
		{
			"mimeType":"image/png",
			"name":"Metal_Bands_Normal_DirectX",
			"uri":"Metal_Bands_Normal_DirectX.png"
		},
		{
			"mimeType":"image/png",
			"name":"Metal_Bands_Base_Color",
			"uri":"Metal_Bands_Base_Color.png"
		},
		{
			"mimeType":"image/png",
			"name":"Metal_Bands_Metallic.png-Metal_Bands_Roughness.png",
			"uri":"Metal_Bands_Metallic_png-Metal_Bands_Roughness_png.png"
		}
	],
	"accessors":[
		{
			"bufferView":0,
			"componentType":5126,
			"count":800,
			"max":[
				0.9966856837272644,
				0.774587094783783,
				0.6926309466362
			],
			"min":[
				-1.8725576400756836,
				-0.1201559528708458,
				-0.7230337262153625
			],
			"type":"VEC3"
		},
		{
			"bufferView":1,
			"componentType":5126,
			"count":800,
			"type":"VEC3"
		},
		{
			"bufferView":2,
			"componentType":5126,
			"count":800,
			"type":"VEC2"
		},
		{
			"bufferView":3,
			"componentType":5123,
			"count":1380,
			"type":"SCALAR"
		},
		{
			"bufferView":4,
			"componentType":5126,
			"count":96,
			"max":[
				1.9015705585479736,
				-0.14495186507701874,
				0.6992337107658386
			],
			"min":[
				-1.8415939807891846,
				-0.3018137812614441,
				-0.6946895122528076
			],
			"type":"VEC3"
		},
		{
			"bufferView":5,
			"componentType":5126,
			"count":96,
			"type":"VEC3"
		},
		{
			"bufferView":6,
			"componentType":5126,
			"count":96,
			"type":"VEC2"
		},
		{
			"bufferView":7,
			"componentType":5123,
			"count":324,
			"type":"SCALAR"
		},
		{
			"bufferView":8,
			"componentType":5126,
			"count":2312,
			"max":[
				1.9452574253082275,
				0.473491370677948,
				0.8639171123504639
			],
			"min":[
				-2.170297622680664,
				-1.3758621215820312,
				-0.8578405976295471
			],
			"type":"VEC3"
		},
		{
			"bufferView":9,
			"componentType":5126,
			"count":2312,
			"type":"VEC3"
		},
		{
			"bufferView":10,
			"componentType":5126,
			"count":2312,
			"type":"VEC2"
		},
		{
			"bufferView":11,
			"componentType":5123,
			"count":9312,
			"type":"SCALAR"
		},
		{
			"bufferView":12,
			"componentType":5126,
			"count":320,
			"max":[
				5.0280585289001465,
				-0.13499625027179718,
				0.5817437171936035
			],
			"min":[
				1.8936073780059814,
				-0.2786523699760437,
				-0.5045500993728638
			],
			"type":"VEC3"
		},
		{
			"bufferView":13,
			"componentType":5126,
			"count":320,
			"type":"VEC3"
		},
		{
			"bufferView":14,
			"componentType":5126,
			"count":320,
			"type":"VEC2"
		},
		{
			"bufferView":15,
			"componentType":5123,
			"count":552,
			"type":"SCALAR"
		},
		{
			"bufferView":16,
			"componentType":5126,
			"count":1284,
			"max":[
				1.1822824478149414,
				-0.28638070821762085,
				1.0783008337020874
			],
			"min":[
				-1.409658670425415,
				-0.61272794008255,
				-1.0802924633026123
			],
			"type":"VEC3"
		},
		{
			"bufferView":17,
			"componentType":5126,
			"count":1284,
			"type":"VEC3"
		},
		{
			"bufferView":18,
			"componentType":5126,
			"count":1284,
			"type":"VEC2"
		},
		{
			"bufferView":19,
			"componentType":5123,
			"count":3840,
			"type":"SCALAR"
		},
		{
			"bufferView":20,
			"componentType":5126,
			"count":864,
			"max":[
				1.6529343128204346,
				0.7558640241622925,
				0.7181437611579895
			],
			"min":[
				-1.9015636444091797,
				-0.18903593719005585,
				-0.7425941228866577
			],
			"type":"VEC3"
		},
		{
			"bufferView":21,
			"componentType":5126,
			"count":864,
			"type":"VEC3"
		},
		{
			"bufferView":22,
			"componentType":5126,
			"count":864,
			"type":"VEC2"
		},
		{
			"bufferView":23,
			"componentType":5123,
			"count":1188,
			"type":"SCALAR"
		},
		{
			"bufferView":24,
			"componentType":5126,
			"count":1218,
			"max":[
				1.9016213417053223,
				0.9668138027191162,
				0.3035898506641388
			],
			"min":[
				0.9478296041488647,
				-0.14884787797927856,
				-0.6502018570899963
			],
			"type":"VEC3"
		},
		{
			"bufferView":25,
			"componentType":5126,
			"count":1218,
			"type":"VEC3"
		},
		{
			"bufferView":26,
			"componentType":5126,
			"count":1218,
			"type":"VEC2"
		},
		{
			"bufferView":27,
			"componentType":5123,
			"count":1920,
			"type":"SCALAR"
		},
		{
			"bufferView":28,
			"componentType":5126,
			"count":5632,
			"max":[
				1.8853693008422852,
				0.9644626379013062,
				0.6389986872673035
			],
			"min":[
				-1.8137140274047852,
				-0.15383954346179962,
				-0.6339500546455383
			],
			"type":"VEC3"
		},
		{
			"bufferView":29,
			"componentType":5126,
			"count":5632,
			"type":"VEC3"
		},
		{
			"bufferView":30,
			"componentType":5126,
			"count":5632,
			"type":"VEC2"
		},
		{
			"bufferView":31,
			"componentType":5123,
			"count":8448,
			"type":"SCALAR"
		},
		{
			"bufferView":32,
			"componentType":5126,
			"count":1218,
			"max":[
				0.04747968912124634,
				0.9618221521377563,
				0.33305391669273376
			],
			"min":[
				-0.9091582894325256,
				-0.15383954346179962,
				-0.6235842704772949
			],
			"type":"VEC3"
		},
		{
			"bufferView":33,
			"componentType":5126,
			"count":1218,
			"type":"VEC3"
		},
		{
			"bufferView":34,
			"componentType":5126,
			"count":1218,
			"type":"VEC2"
		},
		{
			"bufferView":35,
			"componentType":5123,
			"count":1920,
			"type":"SCALAR"
		},
		{
			"bufferView":36,
			"componentType":5126,
			"count":1218,
			"max":[
				0.9710713624954224,
				0.964950442314148,
				0.6552779674530029
			],
			"min":[
				0.01566457748413086,
				-0.1507113128900528,
				-0.30012884736061096
			],
			"type":"VEC3"
		},
		{
			"bufferView":37,
			"componentType":5126,
			"count":1218,
			"type":"VEC3"
		},
		{
			"bufferView":38,
			"componentType":5126,
			"count":1218,
			"type":"VEC2"
		},
		{
			"bufferView":39,
			"componentType":5123,
			"count":1920,
			"type":"SCALAR"
		},
		{
			"bufferView":40,
			"componentType":5126,
			"count":1218,
			"max":[
				-0.8733765482902527,
				0.9769318103790283,
				0.636090099811554
			],
			"min":[
				-1.8300144672393799,
				-0.13872982561588287,
				-0.32054802775382996
			],
			"type":"VEC3"
		},
		{
			"bufferView":41,
			"componentType":5126,
			"count":1218,
			"type":"VEC3"
		},
		{
			"bufferView":42,
			"componentType":5126,
			"count":1218,
			"type":"VEC2"
		}
	],
	"bufferViews":[
		{
			"buffer":0,
			"byteLength":9600,
			"byteOffset":0,
			"target":34962
		},
		{
			"buffer":0,
			"byteLength":9600,
			"byteOffset":9600,
			"target":34962
		},
		{
			"buffer":0,
			"byteLength":6400,
			"byteOffset":19200,
			"target":34962
		},
		{
			"buffer":0,
			"byteLength":2760,
			"byteOffset":25600,
			"target":34963
		},
		{
			"buffer":0,
			"byteLength":1152,
			"byteOffset":28360,
			"target":34962
		},
		{
			"buffer":0,
			"byteLength":1152,
			"byteOffset":29512,
			"target":34962
		},
		{
			"buffer":0,
			"byteLength":768,
			"byteOffset":30664,
			"target":34962
		},
		{
			"buffer":0,
			"byteLength":648,
			"byteOffset":31432,
			"target":34963
		},
		{
			"buffer":0,
			"byteLength":27744,
			"byteOffset":32080,
			"target":34962
		},
		{
			"buffer":0,
			"byteLength":27744,
			"byteOffset":59824,
			"target":34962
		},
		{
			"buffer":0,
			"byteLength":18496,
			"byteOffset":87568,
			"target":34962
		},
		{
			"buffer":0,
			"byteLength":18624,
			"byteOffset":106064,
			"target":34963
		},
		{
			"buffer":0,
			"byteLength":3840,
			"byteOffset":124688,
			"target":34962
		},
		{
			"buffer":0,
			"byteLength":3840,
			"byteOffset":128528,
			"target":34962
		},
		{
			"buffer":0,
			"byteLength":2560,
			"byteOffset":132368,
			"target":34962
		},
		{
			"buffer":0,
			"byteLength":1104,
			"byteOffset":134928,
			"target":34963
		},
		{
			"buffer":0,
			"byteLength":15408,
			"byteOffset":136032,
			"target":34962
		},
		{
			"buffer":0,
			"byteLength":15408,
			"byteOffset":151440,
			"target":34962
		},
		{
			"buffer":0,
			"byteLength":10272,
			"byteOffset":166848,
			"target":34962
		},
		{
			"buffer":0,
			"byteLength":7680,
			"byteOffset":177120,
			"target":34963
		},
		{
			"buffer":0,
			"byteLength":10368,
			"byteOffset":184800,
			"target":34962
		},
		{
			"buffer":0,
			"byteLength":10368,
			"byteOffset":195168,
			"target":34962
		},
		{
			"buffer":0,
			"byteLength":6912,
			"byteOffset":205536,
			"target":34962
		},
		{
			"buffer":0,
			"byteLength":2376,
			"byteOffset":212448,
			"target":34963
		},
		{
			"buffer":0,
			"byteLength":14616,
			"byteOffset":214824,
			"target":34962
		},
		{
			"buffer":0,
			"byteLength":14616,
			"byteOffset":229440,
			"target":34962
		},
		{
			"buffer":0,
			"byteLength":9744,
			"byteOffset":244056,
			"target":34962
		},
		{
			"buffer":0,
			"byteLength":3840,
			"byteOffset":253800,
			"target":34963
		},
		{
			"buffer":0,
			"byteLength":67584,
			"byteOffset":257640,
			"target":34962
		},
		{
			"buffer":0,
			"byteLength":67584,
			"byteOffset":325224,
			"target":34962
		},
		{
			"buffer":0,
			"byteLength":45056,
			"byteOffset":392808,
			"target":34962
		},
		{
			"buffer":0,
			"byteLength":16896,
			"byteOffset":437864,
			"target":34963
		},
		{
			"buffer":0,
			"byteLength":14616,
			"byteOffset":454760,
			"target":34962
		},
		{
			"buffer":0,
			"byteLength":14616,
			"byteOffset":469376,
			"target":34962
		},
		{
			"buffer":0,
			"byteLength":9744,
			"byteOffset":483992,
			"target":34962
		},
		{
			"buffer":0,
			"byteLength":3840,
			"byteOffset":493736,
			"target":34963
		},
		{
			"buffer":0,
			"byteLength":14616,
			"byteOffset":497576,
			"target":34962
		},
		{
			"buffer":0,
			"byteLength":14616,
			"byteOffset":512192,
			"target":34962
		},
		{
			"buffer":0,
			"byteLength":9744,
			"byteOffset":526808,
			"target":34962
		},
		{
			"buffer":0,
			"byteLength":3840,
			"byteOffset":536552,
			"target":34963
		},
		{
			"buffer":0,
			"byteLength":14616,
			"byteOffset":540392,
			"target":34962
		},
		{
			"buffer":0,
			"byteLength":14616,
			"byteOffset":555008,
			"target":34962
		},
		{
			"buffer":0,
			"byteLength":9744,
			"byteOffset":569624,
			"target":34962
		}
	],
	"samplers":[
		{
			"magFilter":9729,
			"minFilter":9987
		}
	],
	"buffers":[
		{
			"byteLength":579368,
			"uri":"cart_of_barrels.bin"
		}
	]
}
