{
	"asset":{
		"generator":"Khronos glTF Blender I/O v4.1.63",
		"version":"2.0"
	},
	"extensionsUsed":[
		"KHR_materials_specular"
	],
	"scene":0,
	"scenes":[
		{
			"name":"Scene",
			"nodes":[
				0
			]
		}
	],
	"nodes":[
		{
			"mesh":0,
			"name":"Boulder06",
			"rotation":[
				0.70710688829422,
				0,
				0,
				0.7071066498756409
			]
		}
	],
	"materials":[
		{
			"doubleSided":true,
			"extensions":{
				"KHR_materials_specular":{
					"specularTexture":{
						"index":0
					},
					"specularColorTexture":{
						"index":1
					}
				}
			},
			"name":"AssortedBoulders",
			"normalTexture":{
				"index":2
			},
			"pbrMetallicRoughness":{
				"baseColorTexture":{
					"index":3
				},
				"metallicFactor":0,
				"roughnessFactor":0.5
			}
		}
	],
	"meshes":[
		{
			"name":"Boulder06",
			"primitives":[
				{
					"attributes":{
						"POSITION":0,
						"NORMAL":1,
						"TEXCOORD_0":2
					},
					"indices":3,
					"material":0
				}
			]
		}
	],
	"textures":[
		{
			"sampler":0,
			"source":0
		},
		{
			"sampler":0,
			"source":0
		},
		{
			"sampler":0,
			"source":1
		},
		{
			"sampler":0,
			"source":2
		}
	],
	"images":[
		{
			"mimeType":"image/png",
			"name":"AssortedBoulders_Base_Specular",
			"uri":"AssortedBoulders_Base_Specular.png"
		},
		{
			"mimeType":"image/png",
			"name":"AssortedBoulders_Base_Normal",
			"uri":"AssortedBoulders_Base_Normal.png"
		},
		{
			"mimeType":"image/png",
			"name":"AssortedBoulders_Base_Diffuse",
			"uri":"AssortedBoulders_Base_Diffuse.png"
		}
	],
	"accessors":[
		{
			"bufferView":0,
			"componentType":5126,
			"count":1126,
			"max":[
				49.41699981689453,
				8.42809009552002,
				0
			],
			"min":[
				33.819000244140625,
				-5.831809997558594,
				-16.269899368286133
			],
			"type":"VEC3"
		},
		{
			"bufferView":1,
			"componentType":5126,
			"count":1126,
			"type":"VEC3"
		},
		{
			"bufferView":2,
			"componentType":5126,
			"count":1126,
			"type":"VEC2"
		},
		{
			"bufferView":3,
			"componentType":5123,
			"count":5196,
			"type":"SCALAR"
		}
	],
	"bufferViews":[
		{
			"buffer":0,
			"byteLength":13512,
			"byteOffset":0,
			"target":34962
		},
		{
			"buffer":0,
			"byteLength":13512,
			"byteOffset":13512,
			"target":34962
		},
		{
			"buffer":0,
			"byteLength":9008,
			"byteOffset":27024,
			"target":34962
		},
		{
			"buffer":0,
			"byteLength":10392,
			"byteOffset":36032,
			"target":34963
		}
	],
	"samplers":[
		{
			"magFilter":9729,
			"minFilter":9987
		}
	],
	"buffers":[
		{
			"byteLength":46424,
			"uri":"rock_4.bin"
		}
	]
}
