{
  "accessors": [
    {
      "bufferView": 2,
      "componentType": 5126,
      "count": 1437,
      "max": [
        0.9879037737846375,
        1.3504794836044312,
        2.5559020042419434
      ],
      "min": [
        -0.5087056159973145,
        -1.4053727388381958,
        -0.012529075145721436
      ],
      "type": "VEC3"
    },
    {
      "bufferView": 2,
      "byteOffset": 17244,
      "componentType": 5126,
      "count": 1437,
      "max": [
        1.0,
        1.0,
        1.0
      ],
      "min": [
        -1.0,
        -1.0,
        -1.0
      ],
      "type": "VEC3"
    },
    {
      "bufferView": 3,
      "componentType": 5126,
      "count": 1437,
      "max": [
        1.0,
        1.0,
        1.0,
        1.0
      ],
      "min": [
        -1.0,
        -1.0,
        -1.0,
        -1.0
      ],
      "type": "VEC4"
    },
    {
      "bufferView": 1,
      "componentType": 5126,
      "count": 1437,
      "max": [
        0.9864456057548523,
        0.9859550595283508
      ],
      "min": [
        0.0027447461616247892,
        0.0027447461616247892
      ],
      "type": "VEC2"
    },
    {
      "bufferView": 1,
      "byteOffset": 11496,
      "componentType": 5126,
      "count": 1437,
      "max": [
        0.9864456057548523,
        0.9859550595283508
      ],
      "min": [
        0.0027447461616247892,
        0.0027447461616247892
      ],
      "type": "VEC2"
    },
    {
      "bufferView": 1,
      "byteOffset": 22992,
      "componentType": 5126,
      "count": 1437,
      "max": [
        0.9864456057548523,
        0.9859550595283508
      ],
      "min": [
        0.0027447461616247892,
        0.0027447461616247892
      ],
      "type": "VEC2"
    },
    {
      "bufferView": 0,
      "componentType": 5125,
      "count": 3870,
      "type": "SCALAR"
    },
    {
      "bufferView": 2,
      "byteOffset": 34488,
      "componentType": 5126,
      "count": 18735,
      "max": [
        3.3402085304260254,
        5.69858455657959,
        -0.9266543984413147
      ],
      "min": [
        -1.8958323001861572,
        -5.004765510559082,
        -2.232177257537842
      ],
      "type": "VEC3"
    },
    {
      "bufferView": 2,
      "byteOffset": 259308,
      "componentType": 5126,
      "count": 18735,
      "max": [
        1.0,
        1.0,
        1.0
      ],
      "min": [
        -1.0,
        -1.0,
        -1.0
      ],
      "type": "VEC3"
    },
    {
      "bufferView": 3,
      "byteOffset": 22992,
      "componentType": 5126,
      "count": 18735,
      "max": [
        1.0,
        1.0,
        1.0,
        1.0
      ],
      "min": [
        -1.0,
        -1.0,
        -1.0,
        -1.0
      ],
      "type": "VEC4"
    },
    {
      "bufferView": 1,
      "byteOffset": 34488,
      "componentType": 5126,
      "count": 18735,
      "max": [
        0.9970267415046692,
        0.9972552061080933
      ],
      "min": [
        0.10444875806570053,
        0.0027447461616247892
      ],
      "type": "VEC2"
    },
    {
      "bufferView": 1,
      "byteOffset": 184368,
      "componentType": 5126,
      "count": 18735,
      "max": [
        0.9970267415046692,
        0.9972552061080933
      ],
      "min": [
        0.10444875806570053,
        0.0027447461616247892
      ],
      "type": "VEC2"
    },
    {
      "bufferView": 1,
      "byteOffset": 334248,
      "componentType": 5126,
      "count": 18735,
      "max": [
        0.9970267415046692,
        0.9972552061080933
      ],
      "min": [
        0.10444875806570053,
        0.0027447461616247892
      ],
      "type": "VEC2"
    },
    {
      "bufferView": 0,
      "byteOffset": 15480,
      "componentType": 5125,
      "count": 63708,
      "type": "SCALAR"
    },
    {
      "bufferView": 2,
      "byteOffset": 484128,
      "componentType": 5126,
      "count": 815,
      "max": [
        1.1706370115280151,
        1.3338407278060913,
        2.576953887939453
      ],
      "min": [
        -0.6892297863960266,
        -1.4330917596817017,
        0.24510632455348969
      ],
      "type": "VEC3"
    },
    {
      "bufferView": 2,
      "byteOffset": 493908,
      "componentType": 5126,
      "count": 815,
      "max": [
        0.9997526407241821,
        0.9998244047164917,
        0.9999881982803345
      ],
      "min": [
        -0.9999254941940308,
        -0.9997615814208984,
        -0.8930895328521729
      ],
      "type": "VEC3"
    },
    {
      "bufferView": 3,
      "byteOffset": 322752,
      "componentType": 5126,
      "count": 815,
      "max": [
        0.9999813437461853,
        0.7688280940055847,
        0.9999374151229858,
        1.0
      ],
      "min": [
        -0.5718985795974731,
        -0.9735487103462219,
        -0.9999613165855408,
        -1.0
      ],
      "type": "VEC4"
    },
    {
      "bufferView": 1,
      "byteOffset": 484128,
      "componentType": 5126,
      "count": 815,
      "max": [
        0.4661784768104553,
        0.6018182635307312
      ],
      "min": [
        0.0027447461616247892,
        0.0027447461616247892
      ],
      "type": "VEC2"
    },
    {
      "bufferView": 1,
      "byteOffset": 490648,
      "componentType": 5126,
      "count": 815,
      "max": [
        0.4661784768104553,
        0.6018182635307312
      ],
      "min": [
        0.0027447461616247892,
        0.0027447461616247892
      ],
      "type": "VEC2"
    },
    {
      "bufferView": 1,
      "byteOffset": 497168,
      "componentType": 5126,
      "count": 815,
      "max": [
        0.4661784768104553,
        0.6018182635307312
      ],
      "min": [
        0.0027447461616247892,
        0.0027447461616247892
      ],
      "type": "VEC2"
    },
    {
      "bufferView": 0,
      "byteOffset": 270312,
      "componentType": 5125,
      "count": 4131,
      "type": "SCALAR"
    }
  ],
  "asset": {
    "extras": {
      "author": "Cyril43 (https://sketchfab.com/Cyril43)",
      "license": "CC-BY-4.0 (http://creativecommons.org/licenses/by/4.0/)",
      "source": "https://sketchfab.com/3d-models/medieval-stall-4a5a40e78e4b481bafbb576303f992cd",
      "title": "Medieval stall"
    },
    "generator": "Sketchfab-12.68.0",
    "version": "2.0"
  },
  "bufferViews": [
    {
      "buffer": 0,
      "byteLength": 286836,
      "name": "floatBufferViews",
      "target": 34963
    },
    {
      "buffer": 0,
      "byteLength": 503688,
      "byteOffset": 286836,
      "byteStride": 8,
      "name": "floatBufferViews",
      "target": 34962
    },
    {
      "buffer": 0,
      "byteLength": 503688,
      "byteOffset": 790524,
      "byteStride": 12,
      "name": "floatBufferViews",
      "target": 34962
    },
    {
      "buffer": 0,
      "byteLength": 335792,
      "byteOffset": 1294212,
      "byteStride": 16,
      "name": "floatBufferViews",
      "target": 34962
    }
  ],
  "buffers": [
    {
      "byteLength": 1630004,
      "uri": "scene.bin"
    }
  ],
  "images": [
    {
      "uri": "textures/TD_Checker_baseColor.png"
    },
    {
      "uri": "textures/TD_Checker_metallicRoughness.png"
    },
    {
      "uri": "textures/TD_Checker_normal.png"
    }
  ],
  "materials": [
    {
      "alphaMode": "BLEND",
      "doubleSided": true,
      "name": "TD_Checker",
      "normalTexture": {
        "index": 2
      },
      "pbrMetallicRoughness": {
        "baseColorTexture": {
          "index": 0
        },
        "metallicRoughnessTexture": {
          "index": 1
        }
      }
    }
  ],
  "meshes": [
    {
      "name": "Cube.005_TD_Checker_0",
      "primitives": [
        {
          "attributes": {
            "NORMAL": 1,
            "POSITION": 0,
            "TANGENT": 2,
            "TEXCOORD_0": 3,
            "TEXCOORD_1": 4,
            "TEXCOORD_2": 5
          },
          "indices": 6,
          "material": 0,
          "mode": 4
        }
      ]
    },
    {
      "name": "Cylinder.015_TD_Checker_0",
      "primitives": [
        {
          "attributes": {
            "NORMAL": 8,
            "POSITION": 7,
            "TANGENT": 9,
            "TEXCOORD_0": 10,
            "TEXCOORD_1": 11,
            "TEXCOORD_2": 12
          },
          "indices": 13,
          "material": 0,
          "mode": 4
        }
      ]
    },
    {
      "name": "Plane_TD_Checker_0",
      "primitives": [
        {
          "attributes": {
            "NORMAL": 15,
            "POSITION": 14,
            "TANGENT": 16,
            "TEXCOORD_0": 17,
            "TEXCOORD_1": 18,
            "TEXCOORD_2": 19
          },
          "indices": 20,
          "material": 0,
          "mode": 4
        }
      ]
    }
  ],
  "nodes": [
    {
      "children": [
        1
      ],
      "matrix": [
        1.0,
        0.0,
        0.0,
        0.0,
        0.0,
        2.220446049250313e-16,
        -1.0,
        0.0,
        0.0,
        1.0,
        2.220446049250313e-16,
        0.0,
        0.0,
        0.0,
        0.0,
        1.0
      ],
      "name": "Sketchfab_model"
    },
    {
      "children": [
        2
      ],
      "matrix": [
        1.0,
        0.0,
        0.0,
        0.0,
        0.0,
        0.0,
        1.0,
        0.0,
        0.0,
        -1.0,
        0.0,
        0.0,
        0.0,
        0.0,
        0.0,
        1.0
      ],
      "name": "e7a4bfb7bf724ee5b88ed28205c6e591.fbx"
    },
    {
      "children": [
        3,
        5,
        7
      ],
      "name": "RootNode"
    },
    {
      "children": [
        4
      ],
      "matrix": [
        100.0,
        0.0,
        0.0,
        0.0,
        0.0,
        -1.629206793918314e-05,
        -99.99999999999868,
        0.0,
        0.0,
        99.99999999999868,
        -1.629206793918314e-05,
        0.0,
        0.0,
        0.0,
        10.980159759521484,
        1.0
      ],
      "name": "Cube.005"
    },
    {
      "mesh": 0,
      "name": "Cube.005_TD_Checker_0"
    },
    {
      "children": [
        6
      ],
      "matrix": [
        27.348678588867188,
        0.0,
        0.0,
        0.0,
        0.0,
        -7.715881846971222e-06,
        27.3486785888661,
        0.0,
        0.0,
        -98.65645599364842,
        -2.7833942887383502e-05,
        0.0,
        0.0,
        0.0,
        10.980159759521484,
        1.0
      ],
      "name": "Cylinder.015"
    },
    {
      "mesh": 1,
      "name": "Cylinder.015_TD_Checker_0"
    },
    {
      "children": [
        8
      ],
      "matrix": [
        100.0,
        0.0,
        0.0,
        0.0,
        0.0,
        -1.629206793918314e-05,
        -99.99999999999868,
        0.0,
        0.0,
        99.99999999999868,
        -1.629206793918314e-05,
        0.0,
        0.0,
        0.0,
        10.980159759521484,
        1.0
      ],
      "name": "Plane"
    },
    {
      "mesh": 2,
      "name": "Plane_TD_Checker_0"
    }
  ],
  "samplers": [
    {
      "magFilter": 9729,
      "minFilter": 9987,
      "wrapS": 10497,
      "wrapT": 10497
    }
  ],
  "scene": 0,
  "scenes": [
    {
      "name": "Sketchfab_Scene",
      "nodes": [
        0
      ]
    }
  ],
  "textures": [
    {
      "sampler": 0,
      "source": 0
    },
    {
      "sampler": 0,
      "source": 1
    },
    {
      "sampler": 0,
      "source": 2
    }
  ]
}
