{
  "accessors": [
    {
      "bufferView": 2,
      "componentType": 5126,
      "count": 981,
      "max": [
        0.204926997423172,
        0.15522600710391998,
        0.6465759873390198
      ],
      "min": [
        -0.19589200615882874,
        -0.19806300103664398,
        0.00016999999934341758
      ],
      "type": "VEC3"
    },
    {
      "bufferView": 2,
      "byteOffset": 11772,
      "componentType": 5126,
      "count": 981,
      "max": [
        0.9999994039535522,
        0.9999985694885254,
        1.0
      ],
      "min": [
        -0.9999986886978149,
        -1.0,
        -1.0
      ],
      "type": "VEC3"
    },
    {
      "bufferView": 3,
      "componentType": 5126,
      "count": 981,
      "max": [
        0.9999998211860657,
        0.9999983906745911,
        0.9999830722808838,
        1.0
      ],
      "min": [
        -0.9999927878379822,
        -0.9999997019767761,
        -1.0,
        -1.0
      ],
      "type": "VEC4"
    },
    {
      "bufferView": 1,
      "componentType": 5126,
      "count": 981,
      "max": [
        0.9992899894714355,
        0.9986889958381653
      ],
      "min": [
        0.0024470000062137842,
        0.0017330000409856439
      ],
      "type": "VEC2"
    },
    {
      "bufferView": 0,
      "componentType": 5125,
      "count": 4167,
      "type": "SCALAR"
    }
  ],
  "asset": {
    "extras": {
      "author": "GetDeadEntertainment (https://sketchfab.com/GetDeadEntertainment)",
      "license": "CC-BY-4.0 (http://creativecommons.org/licenses/by/4.0/)",
      "source": "https://sketchfab.com/3d-models/rustic-medieval-wooden-bedside-book-shelf-6486bdac3dea4cecb90cf83cd24a6c88",
      "title": "Rustic_Medieval_Wooden_Bedside_Book_Shelf"
    },
    "generator": "Sketchfab-15.10.0",
    "version": "2.0"
  },
  "bufferViews": [
    {
      "buffer": 0,
      "byteLength": 16668,
      "name": "floatBufferViews",
      "target": 34963
    },
    {
      "buffer": 0,
      "byteLength": 7848,
      "byteOffset": 16668,
      "byteStride": 8,
      "name": "floatBufferViews",
      "target": 34962
    },
    {
      "buffer": 0,
      "byteLength": 23544,
      "byteOffset": 24516,
      "byteStride": 12,
      "name": "floatBufferViews",
      "target": 34962
    },
    {
      "buffer": 0,
      "byteLength": 15696,
      "byteOffset": 48060,
      "byteStride": 16,
      "name": "floatBufferViews",
      "target": 34962
    }
  ],
  "buffers": [
    {
      "byteLength": 63756,
      "uri": "scene.bin"
    }
  ],
  "images": [
    {
      "uri": "textures/Rustic_Medieval_Wooden_Bedside_Book_Shelf_baseColor.png"
    },
    {
      "uri": "textures/Rustic_Medieval_Wooden_Bedside_Book_Shelf_metallicRoughness.png"
    },
    {
      "uri": "textures/Rustic_Medieval_Wooden_Bedside_Book_Shelf_normal.png"
    }
  ],
  "materials": [
    {
      "doubleSided": true,
      "name": "Rustic_Medieval_Wooden_Bedside_Book_Shelf",
      "normalTexture": {
        "index": 2
      },
      "pbrMetallicRoughness": {
        "baseColorTexture": {
          "index": 0
        },
        "metallicRoughnessTexture": {
          "index": 1
        }
      }
    }
  ],
  "meshes": [
    {
      "name": "Object_0",
      "primitives": [
        {
          "attributes": {
            "NORMAL": 1,
            "POSITION": 0,
            "TANGENT": 2,
            "TEXCOORD_0": 3
          },
          "indices": 4,
          "material": 0,
          "mode": 4
        }
      ]
    }
  ],
  "nodes": [
    {
      "children": [
        1
      ],
      "matrix": [
        1.0,
        0.0,
        0.0,
        0.0,
        0.0,
        2.220446049250313e-16,
        -1.0,
        0.0,
        0.0,
        1.0,
        2.220446049250313e-16,
        0.0,
        0.0,
        0.0,
        0.0,
        1.0
      ],
      "name": "Sketchfab_model"
    },
    {
      "children": [
        2
      ],
      "name": "769dfa5752dd431c8411f2a0d1d4edd5.obj.cleaner.materialmerger.gles"
    },
    {
      "mesh": 0,
      "name": "Object_2"
    }
  ],
  "samplers": [
    {
      "magFilter": 9729,
      "minFilter": 9987,
      "wrapS": 10497,
      "wrapT": 10497
    }
  ],
  "scene": 0,
  "scenes": [
    {
      "name": "Sketchfab_Scene",
      "nodes": [
        0
      ]
    }
  ],
  "textures": [
    {
      "sampler": 0,
      "source": 0
    },
    {
      "sampler": 0,
      "source": 1
    },
    {
      "sampler": 0,
      "source": 2
    }
  ]
}
