{
	"asset":{
		"generator":"Khronos glTF Blender I/O v4.1.63",
		"version":"2.0"
	},
	"scene":0,
	"scenes":[
		{
			"name":"Scene",
			"nodes":[
				0
			]
		}
	],
	"nodes":[
		{
			"mesh":0,
			"name":"Family_Tomb_02",
			"translation":[
				30.3391170501709,
				0,
				4.779487609863281
			]
		}
	],
	"materials":[
		{
			"doubleSided":true,
			"name":"familytomb02",
			"normalTexture":{
				"index":0
			},
			"pbrMetallicRoughness":{
				"baseColorTexture":{
					"index":1
				},
				"metallicRoughnessTexture":{
					"index":2
				}
			}
		}
	],
	"meshes":[
		{
			"name":"Family_Tomb_02",
			"primitives":[
				{
					"attributes":{
						"POSITION":0,
						"NORMAL":1,
						"TEXCOORD_0":2
					},
					"indices":3,
					"material":0
				}
			]
		}
	],
	"textures":[
		{
			"sampler":0,
			"source":0
		},
		{
			"sampler":0,
			"source":1
		},
		{
			"sampler":0,
			"source":2
		}
	],
	"images":[
		{
			"mimeType":"image/png",
			"name":"FamilyTomb02_n",
			"uri":"FamilyTomb02_n.png"
		},
		{
			"mimeType":"image/png",
			"name":"FamilyTomb02_d",
			"uri":"FamilyTomb02_d.png"
		},
		{
			"mimeType":"image/png",
			"name":"FamilyTomb02_m-FamilyTomb02_r",
			"uri":"FamilyTomb02_m-FamilyTomb02_r.png"
		}
	],
	"accessors":[
		{
			"bufferView":0,
			"componentType":5126,
			"count":11787,
			"max":[
				2.056076765060425,
				5.294894218444824,
				1.1215417385101318
			],
			"min":[
				-2.056076765060425,
				-5.684341886080802e-14,
				-1.1215417385101318
			],
			"type":"VEC3"
		},
		{
			"bufferView":1,
			"componentType":5126,
			"count":11787,
			"type":"VEC3"
		},
		{
			"bufferView":2,
			"componentType":5126,
			"count":11787,
			"type":"VEC2"
		},
		{
			"bufferView":3,
			"componentType":5123,
			"count":30258,
			"type":"SCALAR"
		}
	],
	"bufferViews":[
		{
			"buffer":0,
			"byteLength":141444,
			"byteOffset":0,
			"target":34962
		},
		{
			"buffer":0,
			"byteLength":141444,
			"byteOffset":141444,
			"target":34962
		},
		{
			"buffer":0,
			"byteLength":94296,
			"byteOffset":282888,
			"target":34962
		},
		{
			"buffer":0,
			"byteLength":60516,
			"byteOffset":377184,
			"target":34963
		}
	],
	"samplers":[
		{
			"magFilter":9729,
			"minFilter":9987
		}
	],
	"buffers":[
		{
			"byteLength":437700,
			"uri":"SmallMaus1.bin"
		}
	]
}
