{
	"asset":{
		"generator":"Khronos glTF Blender I/O v4.1.63",
		"version":"2.0"
	},
	"scene":0,
	"scenes":[
		{
			"name":"Scene",
			"nodes":[
				0
			]
		}
	],
	"nodes":[
		{
			"mesh":0,
			"name":"Statue_01",
			"translation":[
				24.0778865814209,
				0,
				-11.597278594970703
			]
		}
	],
	"materials":[
		{
			"doubleSided":true,
			"name":"statua 01",
			"normalTexture":{
				"index":0
			},
			"pbrMetallicRoughness":{
				"baseColorTexture":{
					"index":1
				},
				"metallicFactor":0,
				"metallicRoughnessTexture":{
					"index":2
				}
			}
		}
	],
	"meshes":[
		{
			"name":"Statue_01",
			"primitives":[
				{
					"attributes":{
						"POSITION":0,
						"NORMAL":1,
						"TEXCOORD_0":2
					},
					"indices":3,
					"material":0
				}
			]
		}
	],
	"textures":[
		{
			"sampler":0,
			"source":0
		},
		{
			"sampler":0,
			"source":1
		},
		{
			"sampler":0,
			"source":2
		}
	],
	"images":[
		{
			"mimeType":"image/png",
			"name":"Statue_01_n",
			"uri":"Statue_01_n.png"
		},
		{
			"mimeType":"image/png",
			"name":"Statue_01_d",
			"uri":"Statue_01_d.png"
		},
		{
			"mimeType":"image/png",
			"name":"Statue_01_r",
			"uri":"Statue_01_r.png"
		}
	],
	"accessors":[
		{
			"bufferView":0,
			"componentType":5126,
			"count":10916,
			"max":[
				0.5334360003471375,
				2.6618597507476807,
				0.444223552942276
			],
			"min":[
				-0.42779654264450073,
				-0.010042919777333736,
				-0.6436275243759155
			],
			"type":"VEC3"
		},
		{
			"bufferView":1,
			"componentType":5126,
			"count":10916,
			"type":"VEC3"
		},
		{
			"bufferView":2,
			"componentType":5126,
			"count":10916,
			"type":"VEC2"
		},
		{
			"bufferView":3,
			"componentType":5123,
			"count":33582,
			"type":"SCALAR"
		}
	],
	"bufferViews":[
		{
			"buffer":0,
			"byteLength":130992,
			"byteOffset":0,
			"target":34962
		},
		{
			"buffer":0,
			"byteLength":130992,
			"byteOffset":130992,
			"target":34962
		},
		{
			"buffer":0,
			"byteLength":87328,
			"byteOffset":261984,
			"target":34962
		},
		{
			"buffer":0,
			"byteLength":67164,
			"byteOffset":349312,
			"target":34963
		}
	],
	"samplers":[
		{
			"magFilter":9729,
			"minFilter":9987
		}
	],
	"buffers":[
		{
			"byteLength":416476,
			"uri":"Angel1.bin"
		}
	]
}
