{
  "accessors": [
    {
      "bufferView": 2,
      "componentType": 5126,
      "count": 1282,
      "max": [
        2.2893118858337402,
        0.9578698873519897,
        9.88669204711914
      ],
      "min": [
        -3.254382848739624,
        -2.816527843475342,
        0.002742290496826172
      ],
      "type": "VEC3"
    },
    {
      "bufferView": 2,
      "byteOffset": 15384,
      "componentType": 5126,
      "count": 1282,
      "max": [
        1.0,
        0.9999980926513672,
        1.0
      ],
      "min": [
        -0.9999953508377075,
        -0.9999980926513672,
        -1.0
      ],
      "type": "VEC3"
    },
    {
      "bufferView": 3,
      "componentType": 5126,
      "count": 1282,
      "max": [
        0.9999434947967529,
        0.9958273768424988,
        0.999995231628418,
        1.0
      ],
      "min": [
        -0.999998152256012,
        -0.9999995827674866,
        -0.9152176976203918,
        1.0
      ],
      "type": "VEC4"
    },
    {
      "bufferView": 1,
      "componentType": 5126,
      "count": 1282,
      "max": [
        0.9761640429496765,
        0.8754514455795288
      ],
      "min": [
        0.023835912346839905,
        0.023835912346839905
      ],
      "type": "VEC2"
    },
    {
      "bufferView": 0,
      "componentType": 5125,
      "count": 5940,
      "type": "SCALAR"
    },
    {
      "bufferView": 2,
      "byteOffset": 30768,
      "componentType": 5126,
      "count": 220,
      "max": [
        0.9610374569892883,
        0.5392389297485352,
        1.0511078834533691
      ],
      "min": [
        -0.9711930751800537,
        -0.8914654850959778,
        -0.06000852584838867
      ],
      "type": "VEC3"
    },
    {
      "bufferView": 2,
      "byteOffset": 33408,
      "componentType": 5126,
      "count": 220,
      "max": [
        0.9416638612747192,
        0.8598452806472778,
        0.6744148135185242
      ],
      "min": [
        -0.9409908056259155,
        -0.9681979417800903,
        0.06644145399332047
      ],
      "type": "VEC3"
    },
    {
      "bufferView": 1,
      "byteOffset": 10256,
      "componentType": 5126,
      "count": 220,
      "max": [
        1.0,
        1.0
      ],
      "min": [
        0.0,
        0.0
      ],
      "type": "VEC2"
    },
    {
      "bufferView": 0,
      "byteOffset": 23760,
      "componentType": 5125,
      "count": 528,
      "type": "SCALAR"
    }
  ],
  "asset": {
    "extras": {
      "author": "Tetiana_Denysenko (https://sketchfab.com/tetiana_denysenko)",
      "license": "CC-BY-4.0 (http://creativecommons.org/licenses/by/4.0/)",
      "source": "https://sketchfab.com/3d-models/signpost-493bcedc8b344a38a9a67587b14bfcff",
      "title": "Signpost"
    },
    "generator": "Sketchfab-12.66.0",
    "version": "2.0"
  },
  "bufferViews": [
    {
      "buffer": 0,
      "byteLength": 25872,
      "name": "floatBufferViews",
      "target": 34963
    },
    {
      "buffer": 0,
      "byteLength": 12016,
      "byteOffset": 25872,
      "byteStride": 8,
      "name": "floatBufferViews",
      "target": 34962
    },
    {
      "buffer": 0,
      "byteLength": 36048,
      "byteOffset": 37888,
      "byteStride": 12,
      "name": "floatBufferViews",
      "target": 34962
    },
    {
      "buffer": 0,
      "byteLength": 20512,
      "byteOffset": 73936,
      "byteStride": 16,
      "name": "floatBufferViews",
      "target": 34962
    }
  ],
  "buffers": [
    {
      "byteLength": 94448,
      "uri": "scene.bin"
    }
  ],
  "images": [
    {
      "uri": "textures/Material.002_baseColor.jpeg"
    },
    {
      "uri": "textures/Material.002_metallicRoughness.png"
    },
    {
      "uri": "textures/Material.002_normal.png"
    },
    {
      "uri": "textures/Material.005_baseColor.png"
    },
    {
      "uri": "textures/Material.005_metallicRoughness.png"
    }
  ],
  "materials": [
    {
      "doubleSided": true,
      "name": "Material.002",
      "normalTexture": {
        "index": 2
      },
      "occlusionTexture": {
        "index": 1
      },
      "pbrMetallicRoughness": {
        "baseColorTexture": {
          "index": 0
        },
        "metallicFactor": 0.0,
        "metallicRoughnessTexture": {
          "index": 1
        }
      }
    },
    {
      "alphaCutoff": 0.1841152436021378,
      "alphaMode": "MASK",
      "doubleSided": true,
      "name": "Material.005",
      "occlusionTexture": {
        "index": 4
      },
      "pbrMetallicRoughness": {
        "baseColorTexture": {
          "index": 3
        },
        "metallicFactor": 0.0,
        "metallicRoughnessTexture": {
          "index": 4
        },
        "roughnessFactor": 0.8211145618000169
      }
    }
  ],
  "meshes": [
    {
      "name": "UKAZ3_LOW_Material.002_0",
      "primitives": [
        {
          "attributes": {
            "NORMAL": 1,
            "POSITION": 0,
            "TANGENT": 2,
            "TEXCOORD_0": 3
          },
          "indices": 4,
          "material": 0,
          "mode": 4
        }
      ]
    },
    {
      "name": "UKAZ3_LOW_Material.005_0",
      "primitives": [
        {
          "attributes": {
            "NORMAL": 6,
            "POSITION": 5,
            "TEXCOORD_0": 7
          },
          "indices": 8,
          "material": 1,
          "mode": 4
        }
      ]
    }
  ],
  "nodes": [
    {
      "children": [
        1
      ],
      "matrix": [
        1.0,
        0.0,
        0.0,
        0.0,
        0.0,
        2.220446049250313e-16,
        -1.0,
        0.0,
        0.0,
        1.0,
        2.220446049250313e-16,
        0.0,
        0.0,
        0.0,
        0.0,
        1.0
      ],
      "name": "Sketchfab_model"
    },
    {
      "children": [
        2
      ],
      "matrix": [
        1.0,
        0.0,
        0.0,
        0.0,
        0.0,
        0.0,
        1.0,
        0.0,
        0.0,
        -1.0,
        0.0,
        0.0,
        0.0,
        0.0,
        0.0,
        1.0
      ],
      "name": "a01f71c111f94da2a59ab8e0f21b1736.fbx"
    },
    {
      "children": [
        3
      ],
      "name": "RootNode"
    },
    {
      "children": [
        4,
        5
      ],
      "matrix": [
        100.0,
        0.0,
        0.0,
        0.0,
        0.0,
        -1.629206793918314e-05,
        -99.99999999999868,
        0.0,
        0.0,
        99.99999999999868,
        -1.629206793918314e-05,
        0.0,
        0.0,
        0.0,
        0.0,
        1.0
      ],
      "name": "UKAZ3_LOW"
    },
    {
      "mesh": 0,
      "name": "UKAZ3_LOW_Material.002_0"
    },
    {
      "mesh": 1,
      "name": "UKAZ3_LOW_Material.005_0"
    }
  ],
  "samplers": [
    {
      "magFilter": 9729,
      "minFilter": 9987,
      "wrapS": 10497,
      "wrapT": 10497
    }
  ],
  "scene": 0,
  "scenes": [
    {
      "name": "Sketchfab_Scene",
      "nodes": [
        0
      ]
    }
  ],
  "textures": [
    {
      "sampler": 0,
      "source": 0
    },
    {
      "sampler": 0,
      "source": 1
    },
    {
      "sampler": 0,
      "source": 2
    },
    {
      "sampler": 0,
      "source": 3
    },
    {
      "sampler": 0,
      "source": 4
    }
  ]
}
