{
  "accessors": [
    {
      "bufferView": 2,
      "componentType": 5126,
      "count": 65532,
      "max": [
        1.5806870460510254,
        -3.708487033843994,
        0.8862289786338806
      ],
      "min": [
        -1.7008780241012573,
        -9.773865699768066,
        -0.6716669797897339
      ],
      "type": "VEC3"
    },
    {
      "bufferView": 2,
      "byteOffset": 786384,
      "componentType": 5126,
      "count": 65532,
      "max": [
        0.9999985098838806,
        0.9999619722366333,
        0.999991238117218
      ],
      "min": [
        -0.999844491481781,
        -0.9999539852142334,
        -0.9999740123748779
      ],
      "type": "VEC3"
    },
    {
      "bufferView": 1,
      "componentType": 5126,
      "count": 65532,
      "max": [
        0.9995620250701904,
        0.9996989965438843
      ],
      "min": [
        0.000295000005280599,
        0.0004990000161342323
      ],
      "type": "VEC2"
    },
    {
      "bufferView": 0,
      "componentType": 5125,
      "count": 268947,
      "type": "SCALAR"
    },
    {
      "bufferView": 2,
      "byteOffset": 1572768,
      "componentType": 5126,
      "count": 65532,
      "max": [
        1.5845060348510742,
        -3.709980010986328,
        0.837365984916687
      ],
      "min": [
        -1.694201946258545,
        -9.725783348083496,
        -0.6334099769592285
      ],
      "type": "VEC3"
    },
    {
      "bufferView": 2,
      "byteOffset": 2359152,
      "componentType": 5126,
      "count": 65532,
      "max": [
        0.9999444484710693,
        0.9999859929084778,
        0.999991238117218
      ],
      "min": [
        -0.9999983310699463,
        -0.9998322129249573,
        -0.9999746680259705
      ],
      "type": "VEC3"
    },
    {
      "bufferView": 1,
      "byteOffset": 524256,
      "componentType": 5126,
      "count": 65532,
      "max": [
        0.9996799826622009,
        0.999701976776123
      ],
      "min": [
        0.00030499999411404133,
        0.0004440000047907233
      ],
      "type": "VEC2"
    },
    {
      "bufferView": 0,
      "byteOffset": 1075788,
      "componentType": 5125,
      "count": 268617,
      "type": "SCALAR"
    },
    {
      "bufferView": 2,
      "byteOffset": 3145536,
      "componentType": 5126,
      "count": 65532,
      "max": [
        1.5845060348510742,
        -3.708487033843994,
        0.8842229843139648
      ],
      "min": [
        -1.7008780241012573,
        -9.782449722290039,
        -0.6791650056838989
      ],
      "type": "VEC3"
    },
    {
      "bufferView": 2,
      "byteOffset": 3931920,
      "componentType": 5126,
      "count": 65532,
      "max": [
        0.9999823570251465,
        0.9999946355819702,
        0.9999601244926453
      ],
      "min": [
        -0.9999983310699463,
        -0.9998985528945923,
        -0.9999606609344482
      ],
      "type": "VEC3"
    },
    {
      "bufferView": 1,
      "byteOffset": 1048512,
      "componentType": 5126,
      "count": 65532,
      "max": [
        0.9997000098228455,
        0.9997040033340454
      ],
      "min": [
        0.00029399999766610563,
        0.00046300000394694507
      ],
      "type": "VEC2"
    },
    {
      "bufferView": 0,
      "byteOffset": 2150256,
      "componentType": 5125,
      "count": 181200,
      "type": "SCALAR"
    },
    {
      "bufferView": 2,
      "byteOffset": 4718304,
      "componentType": 5126,
      "count": 65533,
      "max": [
        1.585932970046997,
        -3.708487033843994,
        0.8873370289802551
      ],
      "min": [
        -1.70135498046875,
        -9.786456108093262,
        -0.6791650056838989
      ],
      "type": "VEC3"
    },
    {
      "bufferView": 2,
      "byteOffset": 5504700,
      "componentType": 5126,
      "count": 65533,
      "max": [
        0.9999985098838806,
        0.999875009059906,
        0.9999804496765137
      ],
      "min": [
        -0.9999218583106995,
        -0.9999619722366333,
        -0.999995768070221
      ],
      "type": "VEC3"
    },
    {
      "bufferView": 1,
      "byteOffset": 1572768,
      "componentType": 5126,
      "count": 65533,
      "max": [
        0.9996970295906067,
        0.9997040033340454
      ],
      "min": [
        0.00029799999902024865,
        0.0006670000148005784
      ],
      "type": "VEC2"
    },
    {
      "bufferView": 0,
      "byteOffset": 2875056,
      "componentType": 5125,
      "count": 108420,
      "type": "SCALAR"
    },
    {
      "bufferView": 2,
      "byteOffset": 6291096,
      "componentType": 5126,
      "count": 12743,
      "max": [
        1.548761010169983,
        -3.722275972366333,
        0.8738700151443481
      ],
      "min": [
        -1.7010109424591064,
        -9.782449722290039,
        -0.6736279726028442
      ],
      "type": "VEC3"
    },
    {
      "bufferView": 2,
      "byteOffset": 6444012,
      "componentType": 5126,
      "count": 12743,
      "max": [
        0.9999813437461853,
        0.999837338924408,
        0.9999551177024841
      ],
      "min": [
        -0.9997137784957886,
        -0.9998985528945923,
        -0.9998236298561096
      ],
      "type": "VEC3"
    },
    {
      "bufferView": 1,
      "byteOffset": 2097032,
      "componentType": 5126,
      "count": 12743,
      "max": [
        0.999584972858429,
        0.9996179938316345
      ],
      "min": [
        0.00030300000798888505,
        0.0013849999522790313
      ],
      "type": "VEC2"
    },
    {
      "bufferView": 0,
      "byteOffset": 3308736,
      "componentType": 5125,
      "count": 16566,
      "type": "SCALAR"
    }
  ],
  "asset": {
    "extras": {
      "author": "McNabbot (https://sketchfab.com/mcnabbot)",
      "license": "CC-BY-4.0 (http://creativecommons.org/licenses/by/4.0/)",
      "source": "https://sketchfab.com/3d-models/clown-girl-avatar-second-life-3d-scan-7f767637e7b94c9c88a54524a14f626e",
      "title": "Clown Girl Avatar, Second Life 3D Scan"
    },
    "generator": "Sketchfab-15.30.0",
    "version": "2.0"
  },
  "bufferViews": [
    {
      "buffer": 0,
      "byteLength": 3375000,
      "name": "floatBufferViews",
      "target": 34963
    },
    {
      "buffer": 0,
      "byteLength": 2198976,
      "byteOffset": 3375000,
      "byteStride": 8,
      "name": "floatBufferViews",
      "target": 34962
    },
    {
      "buffer": 0,
      "byteLength": 6596928,
      "byteOffset": 5573976,
      "byteStride": 12,
      "name": "floatBufferViews",
      "target": 34962
    }
  ],
  "buffers": [
    {
      "byteLength": 12170904,
      "uri": "scene.bin"
    }
  ],
  "extensionsUsed": [
    "KHR_materials_specular"
  ],
  "images": [
    {
      "uri": "textures/150k_baseColor.jpeg"
    }
  ],
  "materials": [
    {
      "doubleSided": true,
      "extensions": {
        "KHR_materials_specular": {
          "specularColorFactor": [
            1.0,
            1.0,
            1.0
          ],
          "specularFactor": 0.0005094441242445756
        }
      },
      "name": "150k",
      "pbrMetallicRoughness": {
        "baseColorTexture": {
          "index": 0
        },
        "metallicFactor": 0.0
      }
    }
  ],
  "meshes": [
    {
      "name": "Object_0",
      "primitives": [
        {
          "attributes": {
            "NORMAL": 1,
            "POSITION": 0,
            "TEXCOORD_0": 2
          },
          "indices": 3,
          "material": 0,
          "mode": 4
        }
      ]
    },
    {
      "name": "Object_1",
      "primitives": [
        {
          "attributes": {
            "NORMAL": 5,
            "POSITION": 4,
            "TEXCOORD_0": 6
          },
          "indices": 7,
          "material": 0,
          "mode": 4
        }
      ]
    },
    {
      "name": "Object_2",
      "primitives": [
        {
          "attributes": {
            "NORMAL": 9,
            "POSITION": 8,
            "TEXCOORD_0": 10
          },
          "indices": 11,
          "material": 0,
          "mode": 4
        }
      ]
    },
    {
      "name": "Object_3",
      "primitives": [
        {
          "attributes": {
            "NORMAL": 13,
            "POSITION": 12,
            "TEXCOORD_0": 14
          },
          "indices": 15,
          "material": 0,
          "mode": 4
        }
      ]
    },
    {
      "name": "Object_4",
      "primitives": [
        {
          "attributes": {
            "NORMAL": 17,
            "POSITION": 16,
            "TEXCOORD_0": 18
          },
          "indices": 19,
          "material": 0,
          "mode": 4
        }
      ]
    }
  ],
  "nodes": [
    {
      "children": [
        1
      ],
      "matrix": [
        1.0,
        0.0,
        0.0,
        0.0,
        0.0,
        -1.0,
        -4.440892098500626e-16,
        0.0,
        0.0,
        4.440892098500626e-16,
        -1.0,
        0.0,
        0.0,
        0.0,
        0.0,
        1.0
      ],
      "name": "Sketchfab_model"
    },
    {
      "children": [
        2,
        3,
        4,
        5,
        6
      ],
      "name": "150k.obj.cleaner.materialmerger.gles"
    },
    {
      "mesh": 0,
      "name": "Object_2"
    },
    {
      "mesh": 1,
      "name": "Object_3"
    },
    {
      "mesh": 2,
      "name": "Object_4"
    },
    {
      "mesh": 3,
      "name": "Object_5"
    },
    {
      "mesh": 4,
      "name": "Object_6"
    }
  ],
  "samplers": [
    {
      "magFilter": 9729,
      "minFilter": 9987,
      "wrapS": 10497,
      "wrapT": 10497
    }
  ],
  "scene": 0,
  "scenes": [
    {
      "name": "Sketchfab_Scene",
      "nodes": [
        0
      ]
    }
  ],
  "textures": [
    {
      "sampler": 0,
      "source": 0
    }
  ]
}
