{
	"asset":{
		"generator":"Khronos glTF Blender I/O v4.1.63",
		"version":"2.0"
	},
	"scene":0,
	"scenes":[
		{
			"name":"Scene",
			"nodes":[
				0
			]
		}
	],
	"nodes":[
		{
			"mesh":0,
			"name":"Mausoleum_Portal",
			"translation":[
				-9.234806060791016,
				0,
				11.530807495117188
			]
		}
	],
	"materials":[
		{
			"doubleSided":true,
			"name":"Mausoleo",
			"normalTexture":{
				"index":0
			},
			"pbrMetallicRoughness":{
				"baseColorTexture":{
					"index":1
				},
				"metallicRoughnessTexture":{
					"index":2
				}
			}
		}
	],
	"meshes":[
		{
			"name":"Mausoleum_Portal",
			"primitives":[
				{
					"attributes":{
						"POSITION":0,
						"NORMAL":1,
						"TEXCOORD_0":2
					},
					"indices":3,
					"material":0
				}
			]
		}
	],
	"textures":[
		{
			"sampler":0,
			"source":0
		},
		{
			"sampler":0,
			"source":1
		},
		{
			"sampler":0,
			"source":2
		}
	],
	"images":[
		{
			"mimeType":"image/png",
			"name":"Mausoleum_n",
			"uri":"Mausoleum_n.png"
		},
		{
			"mimeType":"image/png",
			"name":"Mausoleum_d",
			"uri":"Mausoleum_d.png"
		},
		{
			"mimeType":"image/png",
			"name":"Mausoleum_m-Mausoleum_r",
			"uri":"Mausoleum_m-Mausoleum_r.png"
		}
	],
	"accessors":[
		{
			"bufferView":0,
			"componentType":5126,
			"count":5700,
			"max":[
				1.0000051259994507,
				5.489465236663818,
				3.4523704051971436
			],
			"min":[
				-1.0000064373016357,
				-7.077154805301689e-06,
				-3.45237135887146
			],
			"type":"VEC3"
		},
		{
			"bufferView":1,
			"componentType":5126,
			"count":5700,
			"type":"VEC3"
		},
		{
			"bufferView":2,
			"componentType":5126,
			"count":5700,
			"type":"VEC2"
		},
		{
			"bufferView":3,
			"componentType":5123,
			"count":8646,
			"type":"SCALAR"
		}
	],
	"bufferViews":[
		{
			"buffer":0,
			"byteLength":68400,
			"byteOffset":0,
			"target":34962
		},
		{
			"buffer":0,
			"byteLength":68400,
			"byteOffset":68400,
			"target":34962
		},
		{
			"buffer":0,
			"byteLength":45600,
			"byteOffset":136800,
			"target":34962
		},
		{
			"buffer":0,
			"byteLength":17292,
			"byteOffset":182400,
			"target":34963
		}
	],
	"samplers":[
		{
			"magFilter":9729,
			"minFilter":9987
		}
	],
	"buffers":[
		{
			"byteLength":199692,
			"uri":"CemetaryGate.bin"
		}
	]
}
