{
  "accessors": [
    {
      "bufferView": 2,
      "componentType": 5126,
      "count": 472,
      "max": [
        50.14387130737305,
        77.33161163330078,
        40.805023193359375
      ],
      "min": [
        -50.14387130737305,
        -77.3784408569336,
        -1.2599999904632568
      ],
      "type": "VEC3"
    },
    {
      "bufferView": 2,
      "byteOffset": 5664,
      "componentType": 5126,
      "count": 472,
      "max": [
        0.9999083876609802,
        0.9999862313270569,
        0.9999998211860657
      ],
      "min": [
        -0.9999083876609802,
        -0.9999880194664001,
        -1.0
      ],
      "type": "VEC3"
    },
    {
      "bufferView": 3,
      "componentType": 5126,
      "count": 472,
      "max": [
        0.999999463558197,
        0.9999182224273682,
        0.9999709725379944,
        1.0
      ],
      "min": [
        -0.9999998211860657,
        -0.9999216198921204,
        -0.9999978542327881,
        -1.0
      ],
      "type": "VEC4"
    },
    {
      "bufferView": 1,
      "componentType": 5126,
      "count": 472,
      "max": [
        0.9749761819839478,
        0.9650706052780151
      ],
      "min": [
        0.01596953719854355,
        0.010011578910052776
      ],
      "type": "VEC2"
    },
    {
      "bufferView": 0,
      "componentType": 5125,
      "count": 1848,
      "type": "SCALAR"
    },
    {
      "bufferView": 2,
      "byteOffset": 11328,
      "componentType": 5126,
      "count": 196,
      "max": [
        54.128753662109375,
        79.69218444824219,
        43.599735260009766
      ],
      "min": [
        -54.128807067871094,
        -79.69219207763672,
        39.246707916259766
      ],
      "type": "VEC3"
    },
    {
      "bufferView": 2,
      "byteOffset": 13680,
      "componentType": 5126,
      "count": 196,
      "max": [
        0.9991150498390198,
        0.9987645149230957,
        0.9999998807907104
      ],
      "min": [
        -0.9991344809532166,
        -0.9989320039749146,
        -0.9999998807907104
      ],
      "type": "VEC3"
    },
    {
      "bufferView": 3,
      "byteOffset": 7552,
      "componentType": 5126,
      "count": 196,
      "max": [
        0.9999998211860657,
        0.35612547397613525,
        0.9997732043266296,
        1.0
      ],
      "min": [
        -1.0,
        -0.34441065788269043,
        -0.9992997646331787,
        1.0
      ],
      "type": "VEC4"
    },
    {
      "bufferView": 1,
      "byteOffset": 3776,
      "componentType": 5126,
      "count": 196,
      "max": [
        0.9850122928619385,
        0.6385406255722046
      ],
      "min": [
        0.009999999776482582,
        0.009944910183548927
      ],
      "type": "VEC2"
    },
    {
      "bufferView": 0,
      "byteOffset": 7392,
      "componentType": 5125,
      "count": 804,
      "type": "SCALAR"
    }
  ],
  "asset": {
    "extras": {
      "author": "Nicki (https://sketchfab.com/nickistar)",
      "license": "CC-BY-4.0 (http://creativecommons.org/licenses/by/4.0/)",
      "source": "https://sketchfab.com/3d-models/wooden-coffin-20878d1dbdf14191afe5e2eaaeb7f543",
      "title": "Wooden Coffin"
    },
    "generator": "Sketchfab-15.62.0",
    "version": "2.0"
  },
  "bufferViews": [
    {
      "buffer": 0,
      "byteLength": 10608,
      "name": "floatBufferViews",
      "target": 34963
    },
    {
      "buffer": 0,
      "byteLength": 5344,
      "byteOffset": 10608,
      "byteStride": 8,
      "name": "floatBufferViews",
      "target": 34962
    },
    {
      "buffer": 0,
      "byteLength": 16032,
      "byteOffset": 15952,
      "byteStride": 12,
      "name": "floatBufferViews",
      "target": 34962
    },
    {
      "buffer": 0,
      "byteLength": 10688,
      "byteOffset": 31984,
      "byteStride": 16,
      "name": "floatBufferViews",
      "target": 34962
    }
  ],
  "buffers": [
    {
      "byteLength": 42672,
      "uri": "scene.bin"
    }
  ],
  "images": [
    {
      "uri": "textures/Material_78_baseColor.png"
    },
    {
      "uri": "textures/Material_78_metallicRoughness.png"
    },
    {
      "uri": "textures/Material_78_normal.png"
    }
  ],
  "materials": [
    {
      "doubleSided": true,
      "name": "Material_78",
      "normalTexture": {
        "index": 2
      },
      "pbrMetallicRoughness": {
        "baseColorTexture": {
          "index": 0
        },
        "metallicFactor": 0.0,
        "metallicRoughnessTexture": {
          "index": 1
        }
      }
    }
  ],
  "meshes": [
    {
      "name": "coffinbase_low_Material #78_0",
      "primitives": [
        {
          "attributes": {
            "NORMAL": 1,
            "POSITION": 0,
            "TANGENT": 2,
            "TEXCOORD_0": 3
          },
          "indices": 4,
          "material": 0,
          "mode": 4
        }
      ]
    },
    {
      "name": "coffinlid_low_Material #78_0",
      "primitives": [
        {
          "attributes": {
            "NORMAL": 6,
            "POSITION": 5,
            "TANGENT": 7,
            "TEXCOORD_0": 8
          },
          "indices": 9,
          "material": 0,
          "mode": 4
        }
      ]
    }
  ],
  "nodes": [
    {
      "children": [
        1
      ],
      "matrix": [
        1.0,
        0.0,
        0.0,
        0.0,
        0.0,
        2.220446049250313e-16,
        -1.0,
        0.0,
        0.0,
        1.0,
        2.220446049250313e-16,
        0.0,
        0.0,
        0.0,
        0.0,
        1.0
      ],
      "name": "Sketchfab_model"
    },
    {
      "children": [
        2
      ],
      "matrix": [
        0.009999999776482582,
        0.0,
        0.0,
        0.0,
        0.0,
        0.0,
        0.009999999776482582,
        0.0,
        0.0,
        -0.009999999776482582,
        0.0,
        0.0,
        0.0,
        0.0,
        0.0,
        1.0
      ],
      "name": "d24c96e4c6da4c488c87f40ac81580d1.fbx"
    },
    {
      "children": [
        3,
        6
      ],
      "name": "RootNode"
    },
    {
      "children": [
        4
      ],
      "matrix": [
        0.41212600469589233,
        0.0,
        0.0,
        0.0,
        0.0,
        1.8271584609749948e-16,
        -0.8228790163993835,
        0.0,
        0.0,
        0.6053060293197632,
        1.3440493813904623e-16,
        0.0,
        0.0,
        0.0,
        0.0,
        1.0
      ],
      "name": "coffinbase_low"
    },
    {
      "children": [
        5
      ],
      "matrix": [
        1.0,
        0.0,
        -0.0,
        0.0,
        0.0,
        1.0,
        0.0,
        0.0,
        0.0,
        0.0,
        1.0,
        0.0,
        0.0,
        0.0,
        18.001712799072266,
        1.0
      ],
      "name": "Object_4"
    },
    {
      "mesh": 0,
      "name": "coffinbase_low_Material #78_0"
    },
    {
      "children": [
        7
      ],
      "matrix": [
        0.41212600469589233,
        0.0,
        0.0,
        0.0,
        0.0,
        1.8271584609749948e-16,
        -0.8228790163993835,
        0.0,
        0.0,
        0.6053060293197632,
        1.3440493813904623e-16,
        0.0,
        0.0,
        0.0,
        0.0,
        1.0
      ],
      "name": "coffinlid_low"
    },
    {
      "children": [
        8
      ],
      "matrix": [
        1.0,
        0.0,
        -0.0,
        0.0,
        0.0,
        1.0,
        0.0,
        0.0,
        0.0,
        0.0,
        1.0,
        0.0,
        0.0,
        0.0,
        18.001712799072266,
        1.0
      ],
      "name": "Object_7"
    },
    {
      "mesh": 1,
      "name": "coffinlid_low_Material #78_0"
    }
  ],
  "samplers": [
    {
      "magFilter": 9729,
      "minFilter": 9987,
      "wrapS": 10497,
      "wrapT": 10497
    }
  ],
  "scene": 0,
  "scenes": [
    {
      "name": "Sketchfab_Scene",
      "nodes": [
        0
      ]
    }
  ],
  "textures": [
    {
      "sampler": 0,
      "source": 0
    },
    {
      "sampler": 0,
      "source": 1
    },
    {
      "sampler": 0,
      "source": 2
    }
  ]
}
